<svg width="138" height="39" viewBox="0 0 138 39" fill="none" xmlns="http://www.w3.org/2000/svg">
  <path d="M0 20.7515L9.28955 0.231445H12.1899L21.5098 20.7515H18.4399L10.1396 1.87146H11.3096L3.01953 20.7515H0ZM4 15.6215L4.78955 13.2715H16.3398L17.1899 15.6215H4Z" fill="#6E4FB5" />
  <path d="M32.98 20.9814C31.8187 21.0471 30.6558 20.8761 29.5625 20.479C28.4692 20.0819 27.4681 19.467 26.6196 18.6714C25.0696 17.1214 24.2998 14.8715 24.2998 11.9015V0.231445H27.23V11.7815C27.23 14.0715 27.7397 15.7815 28.7397 16.7815C29.9329 17.8006 31.4504 18.3605 33.0195 18.3605C34.5887 18.3605 36.1066 17.8006 37.2998 16.7815C38.3131 15.7348 38.8162 14.0682 38.8096 11.7815V0.231445H41.6499V11.9015C41.6499 14.9015 40.8896 17.1214 39.3496 18.6714C38.4999 19.4682 37.4974 20.084 36.4023 20.4811C35.3073 20.8782 34.1429 21.0484 32.98 20.9814Z" fill="#6E4FB5" />
  <path d="M48.3203 20.751V0.230959H56.3203C57.8964 0.186749 59.4642 0.476398 60.9204 1.08093C62.1204 1.59055 63.1405 2.4473 63.8501 3.54102C64.5468 4.69777 64.8941 6.03132 64.8501 7.38098C64.898 8.72792 64.5503 10.0593 63.8501 11.2109C63.1393 12.2989 62.119 13.1489 60.9204 13.651C59.4642 14.2555 57.8964 14.5452 56.3203 14.501H49.9302L51.2505 13.161V20.751H48.3203ZM51.2505 13.4509L49.9302 12.011H56.2305C57.7516 12.1203 59.2628 11.6919 60.5005 10.8009C60.9596 10.3595 61.3247 9.8301 61.5742 9.24414C61.8237 8.65818 61.9521 8.02787 61.9521 7.39099C61.9521 6.75412 61.8237 6.1238 61.5742 5.53784C61.3247 4.95188 60.9596 4.42232 60.5005 3.98096C59.2593 3.09808 57.7499 2.67394 56.2305 2.78101H49.9302L51.2505 1.32092V13.4509ZM62.04 20.751L56.8203 13.3009H59.9604L65.2305 20.751H62.04Z" fill="#6E4FB5" />
  <path d="M79.8004 20.9809C78.31 20.9969 76.8304 20.7288 75.4405 20.1908C74.1482 19.6926 72.9682 18.9413 71.9703 17.9809C70.9937 17.0337 70.2152 15.9018 69.6802 14.6509C68.591 11.9846 68.591 8.99723 69.6802 6.33086C70.2152 5.08001 70.9937 3.9481 71.9703 3.0009C72.9663 2.0429 74.1422 1.29181 75.4302 0.79094C76.823 0.250563 78.3066 -0.0176554 79.8004 0.000901047C81.2757 -0.0126775 82.7404 0.248455 84.1202 0.770921C85.4071 1.26928 86.5829 2.01688 87.5801 2.97087C88.5599 3.91329 89.3361 5.0466 89.8604 6.30083C90.9406 8.98973 90.9406 11.9919 89.8604 14.6808C89.3361 15.9351 88.5599 17.0685 87.5801 18.0109C86.5829 18.9649 85.4071 19.7125 84.1202 20.2109C82.7404 20.7333 81.2757 20.9945 79.8004 20.9809ZM79.8004 18.3709C80.8779 18.3824 81.9475 18.1855 82.9503 17.7909C83.8938 17.4136 84.7511 16.8488 85.4703 16.1309C86.1842 15.4141 86.7514 14.5649 87.1402 13.6309C87.9398 11.6139 87.9398 9.36785 87.1402 7.35088C86.7514 6.41689 86.1842 5.5677 85.4703 4.85088C84.7511 4.13296 83.8938 3.56822 82.9503 3.19084C81.9475 2.79629 80.8779 2.59939 79.8004 2.61089C78.7096 2.59674 77.6264 2.79365 76.6104 3.19084C75.6638 3.56802 74.803 4.1327 74.0801 4.85088C73.3568 5.56408 72.7824 6.41386 72.3902 7.35088C71.5906 9.36785 71.5906 11.6139 72.3902 13.6309C72.7824 14.5679 73.3568 15.4177 74.0801 16.1309C74.803 16.8491 75.6638 17.4138 76.6104 17.7909C77.6264 18.1881 78.7096 18.385 79.8004 18.3709Z" fill="#6E4FB5" />
  <path d="M96.0098 20.751V0.230959H104.01C105.586 0.186749 107.154 0.476398 108.61 1.08093C109.811 1.59304 110.834 2.44901 111.55 3.54102C112.243 4.69909 112.59 6.0317 112.55 7.38098C112.592 8.72727 112.245 10.0571 111.55 11.2109C110.833 12.2971 109.81 13.1463 108.61 13.651C107.154 14.2555 105.586 14.5452 104.01 14.501H97.6196L98.9399 13.161V20.751H96.0098ZM98.9399 13.4509L97.6196 12.011H103.93C105.448 12.1187 106.955 11.6904 108.19 10.8009C108.649 10.3595 109.014 9.8301 109.264 9.24414C109.513 8.65818 109.642 8.02787 109.642 7.39099C109.642 6.75412 109.513 6.1238 109.264 5.53784C109.014 4.95188 108.649 4.42232 108.19 3.98096C106.952 3.09956 105.446 2.67546 103.93 2.78101H97.6196L98.9399 1.32092V13.4509ZM109.73 20.751L104.51 13.3009H107.65L112.92 20.751H109.73Z" fill="#6E4FB5" />
  <path d="M116.14 20.7515L125.43 0.231445H128.33L137.65 20.7515H134.58L126.28 1.87146H127.45L119.16 20.7515H116.14ZM120.14 15.6215L120.93 13.2715H132.48L133.33 15.6215H120.14Z" fill="#6E4FB5" />
  <path d="M0.209961 38.6814V27.3315H4.98975C6.10215 27.3092 7.20341 27.5561 8.19971 28.0514C9.09234 28.4996 9.8382 29.1935 10.3496 30.0514C10.8549 30.9598 11.1201 31.9821 11.1201 33.0215C11.1201 34.0609 10.8549 35.0831 10.3496 35.9915C9.83561 36.8474 9.09044 37.5406 8.19971 37.9915C7.20254 38.4833 6.10132 38.7269 4.98975 38.7015L0.209961 38.6814ZM1.82959 37.2715H4.8999C5.74376 37.2909 6.58007 37.1092 7.33984 36.7415C8.00199 36.4033 8.55351 35.8828 8.92969 35.2415C9.30342 34.5558 9.49951 33.7874 9.49951 33.0065C9.49951 32.2256 9.30342 31.4572 8.92969 30.7715C8.5529 30.1332 8.00129 29.6161 7.33984 29.2815C6.5825 28.9059 5.74504 28.7205 4.8999 28.7415H1.82959V37.2715Z" fill="#6E4FB5" />
  <path d="M16.1396 37.2711H22.7598V38.681H14.5098V27.3311H22.5098V28.7411H16.1196L16.1396 37.2711ZM15.9897 32.2711H21.8296V33.6511H15.9897V32.2711Z" fill="#6E4FB5" />
  <path d="M29.9297 38.681L24.9297 27.3311H26.6899L31.2695 37.811H30.2695L34.8896 27.3311H36.5098L31.5098 38.681H29.9297Z" fill="#6E4FB5" />
  <path d="M40.8101 37.2711H47.4204V38.681H39.1904V27.3311H47.1904V28.7411H40.8003L40.8101 37.2711ZM40.6602 32.2711H46.5103V33.6511H40.6704L40.6602 32.2711Z" fill="#6E4FB5" />
  <path d="M50.7002 38.681V27.3311H52.3203V37.2711H58.5103V38.681H50.7002Z" fill="#6E4FB5" />
  <path d="M65.9998 38.8114C65.1766 38.8203 64.359 38.6745 63.5897 38.3815C62.8746 38.1026 62.222 37.6845 61.6697 37.1515C60.8446 36.3241 60.2842 35.27 60.0599 34.1232C59.8355 32.9764 59.957 31.7888 60.4095 30.7114C60.6992 30.0184 61.1283 29.3922 61.6697 28.8715C62.2195 28.3353 62.8727 27.9168 63.5897 27.6415C64.3578 27.3434 65.1759 27.194 65.9998 27.2014C66.8162 27.1957 67.6262 27.3416 68.3895 27.6315C69.1014 27.912 69.753 28.3261 70.3094 28.8515C70.8487 29.3739 71.2775 29.9997 71.5696 30.6914C72.1692 32.18 72.1692 33.8429 71.5696 35.3314C71.2751 36.0219 70.8466 36.6472 70.3094 37.1714C69.7553 37.6972 69.1029 38.1085 68.3895 38.3815C67.6276 38.6763 66.8166 38.8222 65.9998 38.8114ZM65.9998 37.3715C66.5949 37.3764 67.1852 37.2677 67.7396 37.0514C68.2619 36.8393 68.7375 36.5268 69.1395 36.1315C69.5345 35.7331 69.847 35.2607 70.0594 34.7415C70.2838 34.1926 70.3961 33.6044 70.3895 33.0115C70.3961 32.4153 70.2838 31.8238 70.0594 31.2715C69.8468 30.7553 69.5342 30.2863 69.1395 29.8915C68.74 29.4931 68.2638 29.18 67.7396 28.9715C67.1852 28.7551 66.5949 28.6466 65.9998 28.6515C65.3983 28.6467 64.8009 28.7552 64.2396 28.9715C63.7166 29.1824 63.2408 29.4952 62.8397 29.8915C62.4386 30.2831 62.1219 30.7528 61.9095 31.2715C61.6819 31.8232 61.5665 32.4147 61.5696 33.0115C61.5665 33.6051 61.6819 34.1933 61.9095 34.7415C62.1217 35.2632 62.4383 35.7362 62.8397 36.1315C63.2434 36.5246 63.7185 36.8368 64.2396 37.0514C64.8009 37.2676 65.3983 37.3763 65.9998 37.3715Z" fill="#6E4FB5" />
  <path d="M75.4102 38.6809V27.3309H79.8403C80.7136 27.3102 81.5816 27.4702 82.3901 27.8008C83.0539 28.087 83.6178 28.5638 84.0103 29.1708C84.3776 29.817 84.5708 30.5477 84.5708 31.291C84.5708 32.0342 84.3776 32.7648 84.0103 33.411C83.6115 34.01 83.0491 34.482 82.3901 34.7709C81.5838 35.1099 80.7147 35.2735 79.8403 35.2509H76.3101L77.0303 34.4809V38.6809H75.4102ZM77.0303 34.6809L76.3101 33.8709H79.79C80.6304 33.9266 81.4646 33.6898 82.1504 33.2009C82.4032 32.9574 82.6043 32.6654 82.7417 32.3424C82.8791 32.0193 82.9497 31.6719 82.9497 31.3209C82.9497 30.9698 82.8791 30.6224 82.7417 30.2994C82.6043 29.9764 82.4032 29.6844 82.1504 29.4409C81.4646 28.9519 80.6304 28.7153 79.79 28.7709H76.3101L77.0303 27.9609V34.6809Z" fill="#6E4FB5" />
  <path d="M87.7998 38.681V27.3311H89.1299L94.2197 35.9111H93.5098L98.5098 27.3311H99.8398V38.681H98.2798V29.7811H98.6597L94.1797 37.311H93.5098L89 29.7811H89.3999V38.681H87.7998Z" fill="#6E4FB5" />
  <path d="M105.7 37.2711H112.32V38.681H104.08V27.3311H112.08V28.7411H105.69L105.7 37.2711ZM105.56 32.2711H111.39V33.6511H105.56V32.2711Z" fill="#6E4FB5" />
  <path d="M115.59 38.681V27.3311H116.92L124.42 36.6611H123.73V27.3311H125.35V38.681H124.02L116.51 29.3611H117.21V38.681H115.59Z" fill="#6E4FB5" />
  <path d="M131.95 38.681V28.7411H128.06V27.3311H137.44V28.7411H133.51V38.681H131.95Z" fill="#6E4FB5" />
</svg>
