<svg width="1899" height="1325" viewBox="0 0 1899 1325" fill="none" xmlns="http://www.w3.org/2000/svg">
<path d="M110.044 519.295V573.465L69.6186 615.349V729.598L110.24 773.014V823.518H55.6409L0 882.224V978.707L69.3734 1052.42V1068.58H120.882V1017.07L147.55 990.392H168.21V910.989L200.874 878.325H284.213L405.585 999.698H443.644V936.688L471.366 908.953H631.018V948.385L661.046 978.413H711.795L861.282 1127.9H927.627L977.235 1078.3L1015.6 1116.66H1081.86V1054.22L1097.79 1038.28H1150.35L1193.75 1081.69H1307.81L1361.78 1027.71H1443.12V915.415L1430.84 903.129L1466.45 867.498H1524.85L1584.66 927.308H1659.37L1692.12 894.559H1733.56L1743.04 904.049V982.961L1721.64 1004.36V1018.59L1744.51 1041.46H1771.31L1801.77 1011V830.862L1674.48 703.567H1647.7V731.449L1637.19 741.957H1605.15V510.786L1678.74 437.195V413.396L1637.53 372.186L1670.14 339.572V296.302L1678.67 287.781H1698.39L1707.27 296.67V351.968L1736.55 381.235V439.451L1796.46 499.358H1868.46L1877.69 490.126V438.923L1738.17 299.404V150.689L1707.63 120.134H1692.36L1669.13 143.381V85.7542V77.7232L1695.85 51.0062V26.717L1669.14 0L1534.15 134.983L1556.77 157.592L1507.58 206.796H1442.26L1365.1 283.955H1328.38V332.742L1293.06 368.079V403.955L1240.25 351.146H1207.89V386.814H1117.61L1063.3 441.13V395.654L1105.98 352.961L1076.43 323.411H1012.19L978.596 356.995H911.577V422.138H862.753V459.056L886.184 482.487H841.627L825.161 466.02H791.553V566.549L737.849 620.265H696.677L761.624 555.306V442.982L710.152 494.454V536.694L695.781 551.064L641.342 496.624H571.846L537.209 461.987H398.486L374.504 485.969H338.554V430.659L387.243 381.983V411.091L415.664 439.512H446.341V339.02L401.368 294.034L277.861 417.552V440.738H189.005L110.044 519.295Z" fill="#7B5FBC"/>
<path d="M130.044 525.295V579.465L89.6186 621.349V735.598L130.24 779.014V829.518H75.6409L20 888.224V984.707L89.3734 1058.42V1074.58H140.882V1023.07L167.55 996.392H188.21V916.989L220.874 884.325H304.213L425.585 1005.7H463.644V942.688L491.366 914.953H651.018V954.385L681.046 984.413H731.795L881.282 1133.9H947.627L997.235 1084.3L1035.6 1122.66H1101.86V1060.22L1117.79 1044.28H1170.35L1213.75 1087.69H1327.81L1381.78 1033.71H1463.12V921.415L1450.84 909.129L1486.45 873.498H1544.85L1604.66 933.308H1679.37L1712.12 900.559H1753.56L1763.04 910.049V988.961L1741.64 1010.36V1024.59L1764.51 1047.46H1791.31L1821.77 1017V836.862L1694.48 709.567H1667.7V737.449L1657.19 747.957H1625.15V516.786L1698.74 443.195V419.396L1657.53 378.186L1690.14 345.572V302.302L1698.67 293.781H1718.39L1727.27 302.67V357.968L1756.55 387.235V445.451L1816.46 505.358H1888.46L1897.69 496.126V444.923L1758.17 305.404V156.689L1727.63 126.134H1712.36L1689.13 149.381V91.7542V83.7232L1715.85 57.0062V32.717L1689.14 6L1554.15 140.983L1576.77 163.592L1527.58 212.796H1462.26L1385.1 289.955H1348.38V338.742L1313.06 374.079V409.955L1260.25 357.146H1227.89V392.814H1137.61L1083.3 447.13V401.654L1125.98 358.961L1096.43 329.411H1032.19L998.596 362.995H931.577V428.138H882.753V465.056L906.184 488.487H861.627L845.161 472.02H811.553V572.549L757.849 626.265H716.677L781.624 561.306V448.982L730.152 500.454V542.694L715.781 557.064L661.342 502.624H591.846L557.209 467.987H418.486L394.504 491.969H358.554V436.659L407.243 387.983V417.091L435.664 445.512H466.341V345.02L421.368 300.034L297.861 423.552V446.738H209.005L130.044 525.295Z" stroke="black" stroke-miterlimit="10"/>
<path d="M344.932 636.341L304.209 595.618L263.486 636.341L304.209 677.063L344.932 636.341Z" stroke="black" stroke-miterlimit="10"/>
<path d="M764.445 1218.72L723.723 1178L683 1218.72L723.723 1259.45L764.445 1218.72Z" stroke="black" stroke-miterlimit="10"/>
<path d="M463.659 656.341L353.573 546.255L243.487 656.341L353.573 766.427L463.659 656.341Z" stroke="black" stroke-miterlimit="10"/>
<path d="M324.878 636.332L304.218 615.672L283.557 636.332L304.218 656.993L324.878 636.332Z" stroke="black" stroke-miterlimit="10"/>
<path d="M744.392 1218.71L723.731 1198.05L703.071 1218.71L723.731 1239.37L744.392 1218.71Z" stroke="black" stroke-miterlimit="10"/>
<path d="M342.553 478.706L313.127 449.28L283.701 478.706L313.127 508.132L342.553 478.706Z" stroke="black" stroke-miterlimit="10"/>
<path d="M328.065 478.697L313.136 463.768L298.206 478.697L313.136 493.627L328.065 478.697Z" stroke="black" stroke-miterlimit="10"/>
<path d="M580.092 706.754L550.666 677.328L521.24 706.754L550.666 736.179L580.092 706.754Z" stroke="black" stroke-miterlimit="10"/>
<path d="M565.596 706.754L550.666 691.824L535.736 706.754L550.666 721.683L565.596 706.754Z" stroke="black" stroke-miterlimit="10"/>
<path d="M878.229 997.185L848.804 967.76L819.378 997.185L848.804 1026.61L878.229 997.185Z" stroke="black" stroke-miterlimit="10"/>
<path d="M863.733 997.185L848.804 982.256L833.874 997.185L848.804 1012.12L863.733 997.185Z" stroke="black" stroke-miterlimit="10"/>
<path d="M114.878 871.434L85.4521 842.008L56.0264 871.434L85.4521 900.859L114.878 871.434Z" stroke="black" stroke-miterlimit="10"/>
<path d="M93.8515 960.426L64.4258 931L35 960.426L64.4257 989.851L93.8515 960.426Z" stroke="black" stroke-miterlimit="10"/>
<path d="M100.382 871.434L85.4521 856.504L70.5225 871.434L85.4521 886.363L100.382 871.434Z" stroke="black" stroke-miterlimit="10"/>
<path d="M79.3554 960.426L64.4258 945.496L49.4961 960.426L64.4257 975.355L79.3554 960.426Z" stroke="black" stroke-miterlimit="10"/>
<path d="M683.419 787.918L668.489 772.988L653.56 787.918L668.489 802.847L683.419 787.918Z" stroke="black" stroke-miterlimit="10"/>
<path d="M264.682 844.796L249.752 829.866L234.822 844.796L249.752 859.725L264.682 844.796Z" stroke="black" stroke-miterlimit="10"/>
<path d="M329.914 677V661.446H332.774L337.526 670.004L342.212 661.446H345.006V677H343.092V663.382L337.922 672.952H337.042L331.828 663.382V677H329.914ZM353.022 677.132C351.804 677.132 350.785 676.883 349.964 676.384C349.142 675.871 348.526 675.167 348.116 674.272C347.72 673.377 347.522 672.358 347.522 671.214C347.522 670.055 347.72 669.036 348.116 668.156C348.526 667.261 349.142 666.557 349.964 666.044C350.785 665.531 351.819 665.274 353.066 665.274C354.283 665.274 355.295 665.531 356.102 666.044C356.923 666.557 357.532 667.261 357.928 668.156C358.338 669.036 358.544 670.055 358.544 671.214C358.544 672.358 358.338 673.377 357.928 674.272C357.517 675.167 356.901 675.871 356.08 676.384C355.273 676.883 354.254 677.132 353.022 677.132ZM353.022 675.482C353.872 675.482 354.562 675.291 355.09 674.91C355.632 674.529 356.028 674.015 356.278 673.37C356.542 672.725 356.674 672.006 356.674 671.214C356.674 670.422 356.542 669.703 356.278 669.058C356.028 668.413 355.632 667.899 355.09 667.518C354.562 667.137 353.872 666.946 353.022 666.946C352.186 666.946 351.496 667.137 350.954 667.518C350.426 667.899 350.03 668.413 349.766 669.058C349.516 669.703 349.392 670.422 349.392 671.214C349.392 672.006 349.516 672.725 349.766 673.37C350.03 674.015 350.426 674.529 350.954 674.91C351.496 675.291 352.186 675.482 353.022 675.482ZM365.556 677.132C364.338 677.132 363.326 676.883 362.52 676.384C361.728 675.871 361.134 675.167 360.738 674.272C360.356 673.377 360.166 672.365 360.166 671.236C360.166 670.136 360.364 669.139 360.76 668.244C361.17 667.335 361.786 666.616 362.608 666.088C363.444 665.545 364.5 665.274 365.776 665.274C366.568 665.274 367.272 665.406 367.888 665.67C368.518 665.934 369.039 666.323 369.45 666.836C369.86 667.335 370.146 667.965 370.308 668.728H368.394C368.174 668.083 367.822 667.628 367.338 667.364C366.868 667.085 366.311 666.946 365.666 666.946C364.786 666.946 364.082 667.151 363.554 667.562C363.026 667.973 362.637 668.508 362.388 669.168C362.153 669.813 362.036 670.503 362.036 671.236C362.036 671.999 362.16 672.703 362.41 673.348C362.659 673.993 363.048 674.514 363.576 674.91C364.104 675.291 364.786 675.482 365.622 675.482C366.238 675.482 366.817 675.35 367.36 675.086C367.917 674.822 368.284 674.353 368.46 673.678H370.396C370.249 674.47 369.934 675.123 369.45 675.636C368.98 676.149 368.401 676.531 367.712 676.78C367.037 677.015 366.318 677.132 365.556 677.132ZM372.326 677V665.406H374.196V670.4H376.22L379.652 665.406H381.786L377.914 670.928L382.116 677H379.916L376.44 672.028H374.196V677H372.326ZM383.294 677V665.406H387.782C388.295 665.406 388.801 665.443 389.3 665.516C389.813 665.575 390.275 665.707 390.686 665.912C391.111 666.103 391.449 666.389 391.698 666.77C391.962 667.151 392.094 667.657 392.094 668.288C392.094 668.669 392.035 669.021 391.918 669.344C391.801 669.652 391.625 669.923 391.39 670.158C391.17 670.393 390.884 670.598 390.532 670.774C391.324 670.95 391.896 671.295 392.248 671.808C392.6 672.321 392.776 672.908 392.776 673.568C392.776 674.155 392.666 674.668 392.446 675.108C392.241 675.533 391.947 675.885 391.566 676.164C391.199 676.443 390.767 676.655 390.268 676.802C389.784 676.934 389.263 677 388.706 677H383.294ZM385.208 675.372H388.266C388.721 675.372 389.146 675.328 389.542 675.24C389.938 675.152 390.261 674.991 390.51 674.756C390.759 674.507 390.884 674.155 390.884 673.7C390.884 673.231 390.774 672.879 390.554 672.644C390.349 672.395 390.077 672.226 389.74 672.138C389.417 672.035 389.065 671.977 388.684 671.962C388.303 671.947 387.943 671.94 387.606 671.94H385.208V675.372ZM385.208 670.356H386.814C387.107 670.356 387.445 670.341 387.826 670.312C388.222 670.283 388.603 670.217 388.97 670.114C389.351 669.997 389.659 669.821 389.894 669.586C390.143 669.351 390.268 669.029 390.268 668.618C390.268 668.075 390.114 667.701 389.806 667.496C389.513 667.276 389.161 667.151 388.75 667.122C388.339 667.078 387.958 667.056 387.606 667.056H385.208V670.356ZM398.603 677.132C398.075 677.132 397.562 677.066 397.063 676.934C396.579 676.787 396.139 676.575 395.743 676.296C395.362 676.003 395.054 675.643 394.819 675.218C394.599 674.778 394.489 674.272 394.489 673.7C394.489 673.04 394.607 672.483 394.841 672.028C395.091 671.573 395.421 671.214 395.831 670.95C396.242 670.686 396.719 670.495 397.261 670.378C397.804 670.261 398.369 670.202 398.955 670.202H402.365C402.365 669.542 402.27 668.97 402.079 668.486C401.903 668.002 401.61 667.628 401.199 667.364C400.789 667.085 400.246 666.946 399.571 666.946C399.161 666.946 398.779 666.99 398.427 667.078C398.075 667.166 397.775 667.305 397.525 667.496C397.276 667.687 397.093 667.943 396.975 668.266H394.973C395.076 667.738 395.274 667.291 395.567 666.924C395.875 666.543 396.242 666.235 396.667 666C397.107 665.751 397.577 665.567 398.075 665.45C398.574 665.333 399.073 665.274 399.571 665.274C400.686 665.274 401.581 665.501 402.255 665.956C402.93 666.396 403.421 667.027 403.729 667.848C404.037 668.655 404.191 669.615 404.191 670.73V677H402.629L402.519 675.526C402.197 675.966 401.808 676.303 401.353 676.538C400.899 676.773 400.429 676.927 399.945 677C399.476 677.088 399.029 677.132 398.603 677.132ZM398.779 675.482C399.513 675.482 400.143 675.365 400.671 675.13C401.214 674.881 401.632 674.521 401.925 674.052C402.219 673.583 402.365 673.011 402.365 672.336V671.764H400.319C399.835 671.764 399.359 671.771 398.889 671.786C398.42 671.801 397.995 671.859 397.613 671.962C397.232 672.065 396.924 672.241 396.689 672.49C396.469 672.739 396.359 673.099 396.359 673.568C396.359 674.008 396.469 674.367 396.689 674.646C396.924 674.925 397.225 675.137 397.591 675.284C397.973 675.416 398.369 675.482 398.779 675.482Z" fill="#D7CFEB"/>
<path d="M741.22 1183L747.006 1167.45H749.756L755.52 1183H753.452L752.22 1179.66H744.52L743.288 1183H741.22ZM745.158 1177.92H751.582L748.37 1169.12L745.158 1177.92ZM755.931 1183.02V1181.39C756.224 1181.39 756.488 1181.34 756.723 1181.22C756.958 1181.09 757.163 1180.9 757.339 1180.65C757.544 1180.35 757.706 1179.93 757.823 1179.37C757.94 1178.81 758.021 1178.22 758.065 1177.59C758.124 1176.88 758.168 1176.19 758.197 1175.52C758.226 1174.83 758.248 1174.15 758.263 1173.47C758.292 1172.8 758.307 1172.11 758.307 1171.41H766.359V1183H764.489V1173.06H760.133C760.118 1173.55 760.096 1174.06 760.067 1174.57C760.052 1175.07 760.03 1175.58 760.001 1176.09C759.986 1176.59 759.964 1177.1 759.935 1177.61C759.92 1178.2 759.862 1178.86 759.759 1179.59C759.656 1180.32 759.436 1180.99 759.099 1181.59C758.776 1182.16 758.38 1182.55 757.911 1182.74C757.456 1182.93 756.796 1183.02 755.931 1183.02ZM768.858 1183V1171.41H771.366L775.128 1177.21L778.824 1171.41H781.288V1183H779.44V1173.47L775.348 1180.03H774.82L770.706 1173.47V1183H768.858ZM787.518 1183.13C786.99 1183.13 786.477 1183.07 785.978 1182.93C785.494 1182.79 785.054 1182.57 784.658 1182.3C784.277 1182 783.969 1181.64 783.734 1181.22C783.514 1180.78 783.404 1180.27 783.404 1179.7C783.404 1179.04 783.522 1178.48 783.756 1178.03C784.006 1177.57 784.336 1177.21 784.746 1176.95C785.157 1176.69 785.634 1176.5 786.176 1176.38C786.719 1176.26 787.284 1176.2 787.87 1176.2H791.28C791.28 1175.54 791.185 1174.97 790.994 1174.49C790.818 1174 790.525 1173.63 790.114 1173.36C789.704 1173.09 789.161 1172.95 788.486 1172.95C788.076 1172.95 787.694 1172.99 787.342 1173.08C786.99 1173.17 786.69 1173.31 786.44 1173.5C786.191 1173.69 786.008 1173.94 785.89 1174.27H783.888C783.991 1173.74 784.189 1173.29 784.482 1172.92C784.79 1172.54 785.157 1172.23 785.582 1172C786.022 1171.75 786.492 1171.57 786.99 1171.45C787.489 1171.33 787.988 1171.27 788.486 1171.27C789.601 1171.27 790.496 1171.5 791.17 1171.96C791.845 1172.4 792.336 1173.03 792.644 1173.85C792.952 1174.65 793.106 1175.62 793.106 1176.73V1183H791.544L791.434 1181.53C791.112 1181.97 790.723 1182.3 790.268 1182.54C789.814 1182.77 789.344 1182.93 788.86 1183C788.391 1183.09 787.944 1183.13 787.518 1183.13ZM787.694 1181.48C788.428 1181.48 789.058 1181.36 789.586 1181.13C790.129 1180.88 790.547 1180.52 790.84 1180.05C791.134 1179.58 791.28 1179.01 791.28 1178.34V1177.76H789.234C788.75 1177.76 788.274 1177.77 787.804 1177.79C787.335 1177.8 786.91 1177.86 786.528 1177.96C786.147 1178.06 785.839 1178.24 785.604 1178.49C785.384 1178.74 785.274 1179.1 785.274 1179.57C785.274 1180.01 785.384 1180.37 785.604 1180.65C785.839 1180.92 786.14 1181.14 786.506 1181.28C786.888 1181.42 787.284 1181.48 787.694 1181.48ZM798.27 1183V1173.06H794.288V1171.41H804.122V1173.06H800.14V1183H798.27ZM805.35 1183V1171.41H807.264V1175.83H809.354C810.044 1175.83 810.667 1175.89 811.224 1176C811.782 1176.12 812.258 1176.31 812.654 1176.58C813.05 1176.84 813.351 1177.2 813.556 1177.65C813.762 1178.09 813.864 1178.65 813.864 1179.33C813.864 1179.97 813.754 1180.53 813.534 1181C813.314 1181.47 812.999 1181.85 812.588 1182.14C812.192 1182.44 811.716 1182.66 811.158 1182.8C810.616 1182.93 810.022 1183 809.376 1183H805.35ZM807.264 1181.37H807.88C808.394 1181.37 808.892 1181.36 809.376 1181.35C809.86 1181.32 810.293 1181.25 810.674 1181.13C811.07 1181.01 811.386 1180.82 811.62 1180.56C811.855 1180.28 811.972 1179.89 811.972 1179.39C811.972 1178.92 811.877 1178.56 811.686 1178.31C811.51 1178.05 811.276 1177.86 810.982 1177.74C810.689 1177.61 810.366 1177.53 810.014 1177.5C809.677 1177.47 809.34 1177.46 809.002 1177.46H807.264V1181.37ZM815.47 1183V1171.41H817.34V1183H815.47Z" fill="#D7CFEB"/>
<path d="M264.892 869V853.446H270.348C271.125 853.446 271.829 853.512 272.46 853.644C273.091 853.761 273.633 853.967 274.088 854.26C274.557 854.553 274.917 854.949 275.166 855.448C275.415 855.947 275.54 856.577 275.54 857.34C275.54 858.132 275.357 858.836 274.99 859.452C274.638 860.068 274.088 860.523 273.34 860.816C274.337 860.992 275.085 861.417 275.584 862.092C276.083 862.752 276.332 863.61 276.332 864.666C276.332 865.502 276.171 866.199 275.848 866.756C275.54 867.313 275.1 867.761 274.528 868.098C273.971 868.421 273.325 868.655 272.592 868.802C271.859 868.934 271.074 869 270.238 869H264.892ZM266.806 867.262H270.172C270.627 867.262 271.096 867.24 271.58 867.196C272.079 867.137 272.541 867.027 272.966 866.866C273.391 866.69 273.736 866.419 274 866.052C274.264 865.685 274.396 865.194 274.396 864.578C274.396 864.05 274.293 863.617 274.088 863.28C273.897 862.943 273.633 862.679 273.296 862.488C272.973 862.297 272.599 862.165 272.174 862.092C271.749 862.019 271.316 861.982 270.876 861.982H266.806V867.262ZM266.806 860.266H269.798C270.341 860.266 270.847 860.222 271.316 860.134C271.785 860.031 272.196 859.87 272.548 859.65C272.9 859.43 273.171 859.144 273.362 858.792C273.567 858.44 273.67 858 273.67 857.472C273.67 856.797 273.516 856.299 273.208 855.976C272.9 855.653 272.497 855.441 271.998 855.338C271.499 855.235 270.957 855.184 270.37 855.184H266.806V860.266ZM283.51 869.132C282.293 869.132 281.273 868.883 280.452 868.384C279.631 867.871 279.015 867.167 278.604 866.272C278.208 865.377 278.01 864.358 278.01 863.214C278.01 862.055 278.208 861.036 278.604 860.156C279.015 859.261 279.631 858.557 280.452 858.044C281.273 857.531 282.307 857.274 283.554 857.274C284.771 857.274 285.783 857.531 286.59 858.044C287.411 858.557 288.02 859.261 288.416 860.156C288.827 861.036 289.032 862.055 289.032 863.214C289.032 864.358 288.827 865.377 288.416 866.272C288.005 867.167 287.389 867.871 286.568 868.384C285.761 868.883 284.742 869.132 283.51 869.132ZM283.51 867.482C284.361 867.482 285.05 867.291 285.578 866.91C286.121 866.529 286.517 866.015 286.766 865.37C287.03 864.725 287.162 864.006 287.162 863.214C287.162 862.422 287.03 861.703 286.766 861.058C286.517 860.413 286.121 859.899 285.578 859.518C285.05 859.137 284.361 858.946 283.51 858.946C282.674 858.946 281.985 859.137 281.442 859.518C280.914 859.899 280.518 860.413 280.254 861.058C280.005 861.703 279.88 862.422 279.88 863.214C279.88 864.006 280.005 864.725 280.254 865.37C280.518 866.015 280.914 866.529 281.442 866.91C281.985 867.291 282.674 867.482 283.51 867.482ZM291.094 873.18V857.406H292.876L292.964 859.188C293.36 858.557 293.895 858.081 294.57 857.758C295.259 857.435 296 857.274 296.792 857.274C297.965 857.274 298.926 857.538 299.674 858.066C300.422 858.579 300.972 859.283 301.324 860.178C301.691 861.073 301.874 862.085 301.874 863.214C301.874 864.343 301.691 865.355 301.324 866.25C300.957 867.145 300.393 867.849 299.63 868.362C298.867 868.875 297.892 869.132 296.704 869.132C296.117 869.132 295.589 869.073 295.12 868.956C294.651 868.824 294.24 868.641 293.888 868.406C293.536 868.171 293.228 867.907 292.964 867.614V873.18H291.094ZM296.55 867.482C297.401 867.482 298.075 867.291 298.574 866.91C299.073 866.514 299.432 865.993 299.652 865.348C299.887 864.703 300.004 863.991 300.004 863.214C300.004 862.422 299.887 861.703 299.652 861.058C299.432 860.413 299.065 859.899 298.552 859.518C298.039 859.137 297.357 858.946 296.506 858.946C295.743 858.946 295.091 859.144 294.548 859.54C294.02 859.921 293.617 860.442 293.338 861.102C293.059 861.747 292.92 862.459 292.92 863.236C292.92 864.043 293.052 864.769 293.316 865.414C293.58 866.059 293.983 866.565 294.526 866.932C295.069 867.299 295.743 867.482 296.55 867.482ZM308.905 869.132C307.688 869.132 306.669 868.883 305.847 868.384C305.026 867.871 304.41 867.167 303.999 866.272C303.603 865.377 303.405 864.358 303.405 863.214C303.405 862.055 303.603 861.036 303.999 860.156C304.41 859.261 305.026 858.557 305.847 858.044C306.669 857.531 307.703 857.274 308.949 857.274C310.167 857.274 311.179 857.531 311.985 858.044C312.807 858.557 313.415 859.261 313.811 860.156C314.222 861.036 314.427 862.055 314.427 863.214C314.427 864.358 314.222 865.377 313.811 866.272C313.401 867.167 312.785 867.871 311.963 868.384C311.157 868.883 310.137 869.132 308.905 869.132ZM308.905 867.482C309.756 867.482 310.445 867.291 310.973 866.91C311.516 866.529 311.912 866.015 312.161 865.37C312.425 864.725 312.557 864.006 312.557 863.214C312.557 862.422 312.425 861.703 312.161 861.058C311.912 860.413 311.516 859.899 310.973 859.518C310.445 859.137 309.756 858.946 308.905 858.946C308.069 858.946 307.38 859.137 306.837 859.518C306.309 859.899 305.913 860.413 305.649 861.058C305.4 861.703 305.275 862.422 305.275 863.214C305.275 864.006 305.4 864.725 305.649 865.37C305.913 866.015 306.309 866.529 306.837 866.91C307.38 867.291 308.069 867.482 308.905 867.482ZM316.489 869V857.406H318.359V862.488H324.167V857.406H326.037V869H324.167V864.138H318.359V869H316.489ZM333.569 869.132C332.337 869.132 331.318 868.883 330.511 868.384C329.705 867.871 329.103 867.167 328.707 866.272C328.311 865.377 328.113 864.358 328.113 863.214C328.113 862.055 328.319 861.036 328.729 860.156C329.155 859.261 329.771 858.557 330.577 858.044C331.384 857.531 332.374 857.274 333.547 857.274C334.413 857.274 335.168 857.443 335.813 857.78C336.473 858.103 337.016 858.543 337.441 859.1C337.881 859.657 338.197 860.281 338.387 860.97C338.593 861.659 338.681 862.371 338.651 863.104C338.637 863.236 338.629 863.368 338.629 863.5C338.629 863.632 338.622 863.764 338.607 863.896H330.005C330.064 864.571 330.233 865.179 330.511 865.722C330.79 866.265 331.186 866.697 331.699 867.02C332.213 867.328 332.851 867.482 333.613 867.482C333.995 867.482 334.376 867.438 334.757 867.35C335.153 867.247 335.505 867.079 335.813 866.844C336.136 866.609 336.363 866.294 336.495 865.898H338.409C338.233 866.646 337.903 867.262 337.419 867.746C336.935 868.215 336.356 868.567 335.681 868.802C335.007 869.022 334.303 869.132 333.569 869.132ZM330.049 862.268H336.759C336.745 861.608 336.598 861.029 336.319 860.53C336.041 860.031 335.659 859.643 335.175 859.364C334.706 859.085 334.141 858.946 333.481 858.946C332.763 858.946 332.154 859.1 331.655 859.408C331.171 859.716 330.797 860.119 330.533 860.618C330.269 861.117 330.108 861.667 330.049 862.268ZM339.344 869L343.106 862.928L339.674 857.406H341.676L344.734 862.422H346.472V857.406H348.342V862.422H350.08L353.138 857.406H355.14L351.708 862.928L355.47 869H353.292L350.278 864.006H348.342V869H346.472V864.006H344.536L341.522 869H339.344Z" fill="#D7CFEB"/>
<path d="M684.914 813V797.446H695.364V799.184H686.828V804.42H694.506V806.18H686.828V811.262H695.364V813H684.914ZM697.462 813V801.406H699.332V806.4H701.356L704.788 801.406H706.922L703.05 806.928L707.252 813H705.052L701.576 808.028H699.332V813H697.462ZM711.933 813.132C711.405 813.132 710.892 813.066 710.393 812.934C709.909 812.787 709.469 812.575 709.073 812.296C708.692 812.003 708.384 811.643 708.149 811.218C707.929 810.778 707.819 810.272 707.819 809.7C707.819 809.04 707.936 808.483 708.171 808.028C708.42 807.573 708.75 807.214 709.161 806.95C709.572 806.686 710.048 806.495 710.591 806.378C711.134 806.261 711.698 806.202 712.285 806.202H715.695C715.695 805.542 715.6 804.97 715.409 804.486C715.233 804.002 714.94 803.628 714.529 803.364C714.118 803.085 713.576 802.946 712.901 802.946C712.49 802.946 712.109 802.99 711.757 803.078C711.405 803.166 711.104 803.305 710.855 803.496C710.606 803.687 710.422 803.943 710.305 804.266H708.303C708.406 803.738 708.604 803.291 708.897 802.924C709.205 802.543 709.572 802.235 709.997 802C710.437 801.751 710.906 801.567 711.405 801.45C711.904 801.333 712.402 801.274 712.901 801.274C714.016 801.274 714.91 801.501 715.585 801.956C716.26 802.396 716.751 803.027 717.059 803.848C717.367 804.655 717.521 805.615 717.521 806.73V813H715.959L715.849 811.526C715.526 811.966 715.138 812.303 714.683 812.538C714.228 812.773 713.759 812.927 713.275 813C712.806 813.088 712.358 813.132 711.933 813.132ZM712.109 811.482C712.842 811.482 713.473 811.365 714.001 811.13C714.544 810.881 714.962 810.521 715.255 810.052C715.548 809.583 715.695 809.011 715.695 808.336V807.764H713.649C713.165 807.764 712.688 807.771 712.219 807.786C711.75 807.801 711.324 807.859 710.943 807.962C710.562 808.065 710.254 808.241 710.019 808.49C709.799 808.739 709.689 809.099 709.689 809.568C709.689 810.008 709.799 810.367 710.019 810.646C710.254 810.925 710.554 811.137 710.921 811.284C711.302 811.416 711.698 811.482 712.109 811.482ZM722.684 813V803.056H718.702V801.406H728.536V803.056H724.554V813H722.684ZM734.781 813.132C733.549 813.132 732.529 812.883 731.723 812.384C730.916 811.871 730.315 811.167 729.919 810.272C729.523 809.377 729.325 808.358 729.325 807.214C729.325 806.055 729.53 805.036 729.941 804.156C730.366 803.261 730.982 802.557 731.789 802.044C732.595 801.531 733.585 801.274 734.759 801.274C735.624 801.274 736.379 801.443 737.025 801.78C737.685 802.103 738.227 802.543 738.653 803.1C739.093 803.657 739.408 804.281 739.599 804.97C739.804 805.659 739.892 806.371 739.863 807.104C739.848 807.236 739.841 807.368 739.841 807.5C739.841 807.632 739.833 807.764 739.819 807.896H731.217C731.275 808.571 731.444 809.179 731.723 809.722C732.001 810.265 732.397 810.697 732.911 811.02C733.424 811.328 734.062 811.482 734.825 811.482C735.206 811.482 735.587 811.438 735.969 811.35C736.365 811.247 736.717 811.079 737.025 810.844C737.347 810.609 737.575 810.294 737.707 809.898H739.621C739.445 810.646 739.115 811.262 738.631 811.746C738.147 812.215 737.567 812.567 736.893 812.802C736.218 813.022 735.514 813.132 734.781 813.132ZM731.261 806.268H737.971C737.956 805.608 737.809 805.029 737.531 804.53C737.252 804.031 736.871 803.643 736.387 803.364C735.917 803.085 735.353 802.946 734.693 802.946C733.974 802.946 733.365 803.1 732.867 803.408C732.383 803.716 732.009 804.119 731.745 804.618C731.481 805.117 731.319 805.667 731.261 806.268ZM741.936 817.18V801.406H743.718L743.806 803.188C744.202 802.557 744.737 802.081 745.412 801.758C746.101 801.435 746.842 801.274 747.634 801.274C748.807 801.274 749.768 801.538 750.516 802.066C751.264 802.579 751.814 803.283 752.166 804.178C752.533 805.073 752.716 806.085 752.716 807.214C752.716 808.343 752.533 809.355 752.166 810.25C751.799 811.145 751.235 811.849 750.472 812.362C749.709 812.875 748.734 813.132 747.546 813.132C746.959 813.132 746.431 813.073 745.962 812.956C745.493 812.824 745.082 812.641 744.73 812.406C744.378 812.171 744.07 811.907 743.806 811.614V817.18H741.936ZM747.392 811.482C748.243 811.482 748.917 811.291 749.416 810.91C749.915 810.514 750.274 809.993 750.494 809.348C750.729 808.703 750.846 807.991 750.846 807.214C750.846 806.422 750.729 805.703 750.494 805.058C750.274 804.413 749.907 803.899 749.394 803.518C748.881 803.137 748.199 802.946 747.348 802.946C746.585 802.946 745.933 803.144 745.39 803.54C744.862 803.921 744.459 804.442 744.18 805.102C743.901 805.747 743.762 806.459 743.762 807.236C743.762 808.043 743.894 808.769 744.158 809.414C744.422 810.059 744.825 810.565 745.368 810.932C745.911 811.299 746.585 811.482 747.392 811.482ZM754.688 813V801.406H756.558V810.294C756.66 810.089 756.8 809.869 756.976 809.634C757.152 809.385 757.291 809.194 757.394 809.062L763.004 801.406H764.852V813H762.982V804.112C762.864 804.332 762.732 804.537 762.586 804.728C762.454 804.919 762.329 805.095 762.212 805.256L756.514 813H754.688ZM767.353 813V801.406H769.223V806.488H775.031V801.406H776.901V813H775.031V808.138H769.223V813H767.353ZM784.301 813.132C783.568 813.132 782.915 813.029 782.343 812.824C781.771 812.604 781.28 812.303 780.869 811.922C780.458 811.526 780.121 811.064 779.857 810.536C779.593 809.993 779.395 809.407 779.263 808.776C779.131 808.145 779.065 807.478 779.065 806.774C779.065 805.645 779.087 804.596 779.131 803.628C779.19 802.645 779.351 801.773 779.615 801.01C779.879 800.233 780.326 799.587 780.957 799.074C781.588 798.561 782.475 798.201 783.619 797.996C784.206 797.893 784.785 797.805 785.357 797.732C785.929 797.659 786.508 797.585 787.095 797.512C787.286 797.483 787.484 797.453 787.689 797.424C787.894 797.395 788.107 797.358 788.327 797.314C788.562 797.27 788.782 797.233 788.987 797.204V798.92C788.826 798.979 788.65 799.03 788.459 799.074C788.283 799.103 788.092 799.133 787.887 799.162C787.696 799.191 787.498 799.213 787.293 799.228C787.102 799.243 786.912 799.265 786.721 799.294C786.53 799.309 786.347 799.331 786.171 799.36C785.658 799.419 785.115 799.477 784.543 799.536C783.971 799.58 783.428 799.697 782.915 799.888C782.416 800.064 781.991 800.409 781.639 800.922C781.463 801.186 781.309 801.501 781.177 801.868C781.06 802.235 780.972 802.609 780.913 802.99C780.869 803.357 780.84 803.709 780.825 804.046C781.118 803.635 781.478 803.305 781.903 803.056C782.328 802.792 782.783 802.601 783.267 802.484C783.751 802.352 784.213 802.286 784.653 802.286C785.709 802.286 786.604 802.506 787.337 802.946C788.07 803.371 788.628 803.98 789.009 804.772C789.39 805.564 789.581 806.488 789.581 807.544C789.581 808.6 789.376 809.553 788.965 810.404C788.554 811.24 787.953 811.907 787.161 812.406C786.384 812.89 785.43 813.132 784.301 813.132ZM784.345 811.482C785.078 811.482 785.694 811.306 786.193 810.954C786.692 810.602 787.066 810.133 787.315 809.546C787.579 808.959 787.711 808.314 787.711 807.61C787.711 806.921 787.579 806.305 787.315 805.762C787.066 805.205 786.692 804.765 786.193 804.442C785.709 804.119 785.108 803.958 784.389 803.958C783.685 803.958 783.076 804.127 782.563 804.464C782.064 804.801 781.676 805.256 781.397 805.828C781.133 806.385 781.001 806.994 781.001 807.654C781.001 808.329 781.126 808.959 781.375 809.546C781.624 810.133 781.991 810.602 782.475 810.954C782.974 811.306 783.597 811.482 784.345 811.482ZM792.027 817.972V816.19C792.745 816.19 793.317 816.087 793.743 815.882C794.168 815.691 794.52 815.383 794.799 814.958C795.092 814.547 795.371 814.019 795.635 813.374L790.553 801.406H792.753L796.669 811.174L799.881 801.406H801.993L798.737 810.536C798.575 811.005 798.392 811.533 798.187 812.12C797.981 812.707 797.754 813.301 797.505 813.902C797.255 814.518 796.977 815.083 796.669 815.596C796.375 816.124 796.045 816.549 795.679 816.872C795.371 817.151 795.07 817.371 794.777 817.532C794.483 817.693 794.124 817.803 793.699 817.862C793.288 817.935 792.731 817.972 792.027 817.972ZM803.287 817.18V801.406H805.069L805.157 803.188C805.553 802.557 806.088 802.081 806.763 801.758C807.452 801.435 808.193 801.274 808.985 801.274C810.158 801.274 811.119 801.538 811.867 802.066C812.615 802.579 813.165 803.283 813.517 804.178C813.884 805.073 814.067 806.085 814.067 807.214C814.067 808.343 813.884 809.355 813.517 810.25C813.15 811.145 812.586 811.849 811.823 812.362C811.06 812.875 810.085 813.132 808.897 813.132C808.31 813.132 807.782 813.073 807.313 812.956C806.844 812.824 806.433 812.641 806.081 812.406C805.729 812.171 805.421 811.907 805.157 811.614V817.18H803.287ZM808.743 811.482C809.594 811.482 810.268 811.291 810.767 810.91C811.266 810.514 811.625 809.993 811.845 809.348C812.08 808.703 812.197 807.991 812.197 807.214C812.197 806.422 812.08 805.703 811.845 805.058C811.625 804.413 811.258 803.899 810.745 803.518C810.232 803.137 809.55 802.946 808.699 802.946C807.936 802.946 807.284 803.144 806.741 803.54C806.213 803.921 805.81 804.442 805.531 805.102C805.252 805.747 805.113 806.459 805.113 807.236C805.113 808.043 805.245 808.769 805.509 809.414C805.773 810.059 806.176 810.565 806.719 810.932C807.262 811.299 807.936 811.482 808.743 811.482ZM816.038 813V801.406H824.046V803.056H817.908V813H816.038Z" fill="#D7CFEB"/>
<path d="M571.914 740V724.446H573.828V731.618H576.138L581.198 724.446H583.398L577.81 732.168L583.442 740H581.176L576.292 733.356H573.828V740H571.914ZM588.287 740.132C587.759 740.132 587.246 740.066 586.747 739.934C586.263 739.787 585.823 739.575 585.427 739.296C585.046 739.003 584.738 738.643 584.503 738.218C584.283 737.778 584.173 737.272 584.173 736.7C584.173 736.04 584.29 735.483 584.525 735.028C584.774 734.573 585.104 734.214 585.515 733.95C585.926 733.686 586.402 733.495 586.945 733.378C587.488 733.261 588.052 733.202 588.639 733.202H592.049C592.049 732.542 591.954 731.97 591.763 731.486C591.587 731.002 591.294 730.628 590.883 730.364C590.472 730.085 589.93 729.946 589.255 729.946C588.844 729.946 588.463 729.99 588.111 730.078C587.759 730.166 587.458 730.305 587.209 730.496C586.96 730.687 586.776 730.943 586.659 731.266H584.657C584.76 730.738 584.958 730.291 585.251 729.924C585.559 729.543 585.926 729.235 586.351 729C586.791 728.751 587.26 728.567 587.759 728.45C588.258 728.333 588.756 728.274 589.255 728.274C590.37 728.274 591.264 728.501 591.939 728.956C592.614 729.396 593.105 730.027 593.413 730.848C593.721 731.655 593.875 732.615 593.875 733.73V740H592.313L592.203 738.526C591.88 738.966 591.492 739.303 591.037 739.538C590.582 739.773 590.113 739.927 589.629 740C589.16 740.088 588.712 740.132 588.287 740.132ZM588.463 738.482C589.196 738.482 589.827 738.365 590.355 738.13C590.898 737.881 591.316 737.521 591.609 737.052C591.902 736.583 592.049 736.011 592.049 735.336V734.764H590.003C589.519 734.764 589.042 734.771 588.573 734.786C588.104 734.801 587.678 734.859 587.297 734.962C586.916 735.065 586.608 735.241 586.373 735.49C586.153 735.739 586.043 736.099 586.043 736.568C586.043 737.008 586.153 737.367 586.373 737.646C586.608 737.925 586.908 738.137 587.275 738.284C587.656 738.416 588.052 738.482 588.463 738.482ZM600.534 740.132C599.977 740.132 599.42 740.081 598.862 739.978C598.305 739.875 597.784 739.707 597.3 739.472C596.831 739.223 596.45 738.893 596.156 738.482C595.863 738.057 595.702 737.529 595.672 736.898H597.498C597.572 737.294 597.784 737.609 598.136 737.844C598.488 738.079 598.884 738.247 599.324 738.35C599.779 738.438 600.182 738.482 600.534 738.482C600.945 738.482 601.363 738.438 601.788 738.35C602.228 738.262 602.595 738.086 602.888 737.822C603.196 737.558 603.35 737.169 603.35 736.656C603.35 736.157 603.226 735.791 602.976 735.556C602.742 735.321 602.426 735.167 602.03 735.094C601.649 735.021 601.231 734.984 600.776 734.984H598.708V733.334H600.402C600.681 733.334 600.967 733.312 601.26 733.268C601.554 733.209 601.825 733.121 602.074 733.004C602.324 732.872 602.522 732.689 602.668 732.454C602.83 732.219 602.91 731.919 602.91 731.552C602.91 731.141 602.793 730.819 602.558 730.584C602.324 730.349 602.023 730.188 601.656 730.1C601.29 729.997 600.916 729.946 600.534 729.946C600.182 729.946 599.808 729.983 599.412 730.056C599.031 730.129 598.701 730.276 598.422 730.496C598.144 730.701 597.975 731.009 597.916 731.42H596.068C596.098 730.628 596.34 730.005 596.794 729.55C597.249 729.095 597.814 728.773 598.488 728.582C599.163 728.377 599.838 728.274 600.512 728.274C601.026 728.274 601.532 728.325 602.03 728.428C602.529 728.531 602.984 728.707 603.394 728.956C603.805 729.191 604.128 729.506 604.362 729.902C604.612 730.298 604.736 730.789 604.736 731.376C604.736 731.904 604.612 732.373 604.362 732.784C604.113 733.195 603.732 733.525 603.218 733.774C603.966 734.009 604.487 734.375 604.78 734.874C605.074 735.373 605.22 735.967 605.22 736.656C605.22 737.272 605.088 737.8 604.824 738.24C604.56 738.665 604.201 739.025 603.746 739.318C603.306 739.597 602.808 739.802 602.25 739.934C601.693 740.066 601.121 740.132 600.534 740.132ZM610.911 740.132C610.383 740.132 609.87 740.066 609.371 739.934C608.887 739.787 608.447 739.575 608.051 739.296C607.67 739.003 607.362 738.643 607.127 738.218C606.907 737.778 606.797 737.272 606.797 736.7C606.797 736.04 606.914 735.483 607.149 735.028C607.398 734.573 607.728 734.214 608.139 733.95C608.55 733.686 609.026 733.495 609.569 733.378C610.112 733.261 610.676 733.202 611.263 733.202H614.673C614.673 732.542 614.578 731.97 614.387 731.486C614.211 731.002 613.918 730.628 613.507 730.364C613.096 730.085 612.554 729.946 611.879 729.946C611.468 729.946 611.087 729.99 610.735 730.078C610.383 730.166 610.082 730.305 609.833 730.496C609.584 730.687 609.4 730.943 609.283 731.266H607.281C607.384 730.738 607.582 730.291 607.875 729.924C608.183 729.543 608.55 729.235 608.975 729C609.415 728.751 609.884 728.567 610.383 728.45C610.882 728.333 611.38 728.274 611.879 728.274C612.994 728.274 613.888 728.501 614.563 728.956C615.238 729.396 615.729 730.027 616.037 730.848C616.345 731.655 616.499 732.615 616.499 733.73V740H614.937L614.827 738.526C614.504 738.966 614.116 739.303 613.661 739.538C613.206 739.773 612.737 739.927 612.253 740C611.784 740.088 611.336 740.132 610.911 740.132ZM611.087 738.482C611.82 738.482 612.451 738.365 612.979 738.13C613.522 737.881 613.94 737.521 614.233 737.052C614.526 736.583 614.673 736.011 614.673 735.336V734.764H612.627C612.143 734.764 611.666 734.771 611.197 734.786C610.728 734.801 610.302 734.859 609.921 734.962C609.54 735.065 609.232 735.241 608.997 735.49C608.777 735.739 608.667 736.099 608.667 736.568C608.667 737.008 608.777 737.367 608.997 737.646C609.232 737.925 609.532 738.137 609.899 738.284C610.28 738.416 610.676 738.482 611.087 738.482ZM618.956 740V728.406H620.826V733.488H626.634V728.406H628.504V740H626.634V735.138H620.826V740H618.956ZM631.02 740V728.406H632.934V732.828H635.486C636.175 732.828 636.791 732.887 637.334 733.004C637.891 733.107 638.368 733.29 638.764 733.554C639.16 733.818 639.461 734.177 639.666 734.632C639.886 735.072 639.996 735.637 639.996 736.326C639.996 736.957 639.886 737.507 639.666 737.976C639.446 738.431 639.138 738.812 638.742 739.12C638.346 739.413 637.869 739.633 637.312 739.78C636.769 739.927 636.168 740 635.508 740H631.02ZM632.934 738.372H634.034C634.547 738.372 635.039 738.357 635.508 738.328C635.992 738.299 636.432 738.225 636.828 738.108C637.224 737.991 637.532 737.8 637.752 737.536C637.987 737.257 638.104 736.876 638.104 736.392C638.104 735.923 638.009 735.563 637.818 735.314C637.642 735.05 637.407 734.859 637.114 734.742C636.821 734.61 636.498 734.529 636.146 734.5C635.809 734.471 635.471 734.456 635.134 734.456H632.934V738.372Z" fill="#D7CFEB"/>
<path d="M107.914 905V889.446H113.304C114.448 889.446 115.431 889.637 116.252 890.018C117.073 890.385 117.697 890.949 118.122 891.712C118.562 892.475 118.782 893.443 118.782 894.616C118.782 895.76 118.525 896.728 118.012 897.52C117.513 898.297 116.824 898.884 115.944 899.28C115.064 899.676 114.052 899.874 112.908 899.874H109.828V905H107.914ZM109.828 898.136H112.82C114.008 898.136 114.969 897.857 115.702 897.3C116.45 896.728 116.824 895.804 116.824 894.528C116.824 893.413 116.523 892.577 115.922 892.02C115.321 891.463 114.419 891.184 113.216 891.184H109.828V898.136ZM125.629 905.132C124.412 905.132 123.392 904.883 122.571 904.384C121.75 903.871 121.134 903.167 120.723 902.272C120.327 901.377 120.129 900.358 120.129 899.214C120.129 898.055 120.327 897.036 120.723 896.156C121.134 895.261 121.75 894.557 122.571 894.044C123.392 893.531 124.426 893.274 125.673 893.274C126.89 893.274 127.902 893.531 128.709 894.044C129.53 894.557 130.139 895.261 130.535 896.156C130.946 897.036 131.151 898.055 131.151 899.214C131.151 900.358 130.946 901.377 130.535 902.272C130.124 903.167 129.508 903.871 128.687 904.384C127.88 904.883 126.861 905.132 125.629 905.132ZM125.629 903.482C126.48 903.482 127.169 903.291 127.697 902.91C128.24 902.529 128.636 902.015 128.885 901.37C129.149 900.725 129.281 900.006 129.281 899.214C129.281 898.422 129.149 897.703 128.885 897.058C128.636 896.413 128.24 895.899 127.697 895.518C127.169 895.137 126.48 894.946 125.629 894.946C124.793 894.946 124.104 895.137 123.561 895.518C123.033 895.899 122.637 896.413 122.373 897.058C122.124 897.703 121.999 898.422 121.999 899.214C121.999 900.006 122.124 900.725 122.373 901.37C122.637 902.015 123.033 902.529 123.561 902.91C124.104 903.291 124.793 903.482 125.629 903.482ZM138.163 905.132C136.946 905.132 135.934 904.883 135.127 904.384C134.335 903.871 133.741 903.167 133.345 902.272C132.964 901.377 132.773 900.365 132.773 899.236C132.773 898.136 132.971 897.139 133.367 896.244C133.778 895.335 134.394 894.616 135.215 894.088C136.051 893.545 137.107 893.274 138.383 893.274C139.175 893.274 139.879 893.406 140.495 893.67C141.126 893.934 141.646 894.323 142.057 894.836C142.468 895.335 142.754 895.965 142.915 896.728H141.001C140.781 896.083 140.429 895.628 139.945 895.364C139.476 895.085 138.918 894.946 138.273 894.946C137.393 894.946 136.689 895.151 136.161 895.562C135.633 895.973 135.244 896.508 134.995 897.168C134.76 897.813 134.643 898.503 134.643 899.236C134.643 899.999 134.768 900.703 135.017 901.348C135.266 901.993 135.655 902.514 136.183 902.91C136.711 903.291 137.393 903.482 138.229 903.482C138.845 903.482 139.424 903.35 139.967 903.086C140.524 902.822 140.891 902.353 141.067 901.678H143.003C142.856 902.47 142.541 903.123 142.057 903.636C141.588 904.149 141.008 904.531 140.319 904.78C139.644 905.015 138.926 905.132 138.163 905.132ZM147.639 905V895.056H143.657V893.406H153.491V895.056H149.509V905H147.639ZM159.78 905.132C158.563 905.132 157.543 904.883 156.722 904.384C155.901 903.871 155.285 903.167 154.874 902.272C154.478 901.377 154.28 900.358 154.28 899.214C154.28 898.055 154.478 897.036 154.874 896.156C155.285 895.261 155.901 894.557 156.722 894.044C157.543 893.531 158.577 893.274 159.824 893.274C161.041 893.274 162.053 893.531 162.86 894.044C163.681 894.557 164.29 895.261 164.686 896.156C165.097 897.036 165.302 898.055 165.302 899.214C165.302 900.358 165.097 901.377 164.686 902.272C164.275 903.167 163.659 903.871 162.838 904.384C162.031 904.883 161.012 905.132 159.78 905.132ZM159.78 903.482C160.631 903.482 161.32 903.291 161.848 902.91C162.391 902.529 162.787 902.015 163.036 901.37C163.3 900.725 163.432 900.006 163.432 899.214C163.432 898.422 163.3 897.703 163.036 897.058C162.787 896.413 162.391 895.899 161.848 895.518C161.32 895.137 160.631 894.946 159.78 894.946C158.944 894.946 158.255 895.137 157.712 895.518C157.184 895.899 156.788 896.413 156.524 897.058C156.275 897.703 156.15 898.422 156.15 899.214C156.15 900.006 156.275 900.725 156.524 901.37C156.788 902.015 157.184 902.529 157.712 902.91C158.255 903.291 158.944 903.482 159.78 903.482ZM167.364 905V893.406H171.852C172.365 893.406 172.871 893.443 173.37 893.516C173.883 893.575 174.345 893.707 174.756 893.912C175.181 894.103 175.519 894.389 175.768 894.77C176.032 895.151 176.164 895.657 176.164 896.288C176.164 896.669 176.105 897.021 175.988 897.344C175.871 897.652 175.695 897.923 175.46 898.158C175.24 898.393 174.954 898.598 174.602 898.774C175.394 898.95 175.966 899.295 176.318 899.808C176.67 900.321 176.846 900.908 176.846 901.568C176.846 902.155 176.736 902.668 176.516 903.108C176.311 903.533 176.017 903.885 175.636 904.164C175.269 904.443 174.837 904.655 174.338 904.802C173.854 904.934 173.333 905 172.776 905H167.364ZM169.278 903.372H172.336C172.791 903.372 173.216 903.328 173.612 903.24C174.008 903.152 174.331 902.991 174.58 902.756C174.829 902.507 174.954 902.155 174.954 901.7C174.954 901.231 174.844 900.879 174.624 900.644C174.419 900.395 174.147 900.226 173.81 900.138C173.487 900.035 173.135 899.977 172.754 899.962C172.373 899.947 172.013 899.94 171.676 899.94H169.278V903.372ZM169.278 898.356H170.884C171.177 898.356 171.515 898.341 171.896 898.312C172.292 898.283 172.673 898.217 173.04 898.114C173.421 897.997 173.729 897.821 173.964 897.586C174.213 897.351 174.338 897.029 174.338 896.618C174.338 896.075 174.184 895.701 173.876 895.496C173.583 895.276 173.231 895.151 172.82 895.122C172.409 895.078 172.028 895.056 171.676 895.056H169.278V898.356ZM179.109 899.654V897.938H185.929V899.654H179.109ZM107.474 927V915.406H109.344V920.488H115.152V915.406H117.022V927H115.152V922.138H109.344V927H107.474ZM123.256 927.132C122.728 927.132 122.215 927.066 121.716 926.934C121.232 926.787 120.792 926.575 120.396 926.296C120.015 926.003 119.707 925.643 119.472 925.218C119.252 924.778 119.142 924.272 119.142 923.7C119.142 923.04 119.259 922.483 119.494 922.028C119.743 921.573 120.073 921.214 120.484 920.95C120.895 920.686 121.371 920.495 121.914 920.378C122.457 920.261 123.021 920.202 123.608 920.202H127.018C127.018 919.542 126.923 918.97 126.732 918.486C126.556 918.002 126.263 917.628 125.852 917.364C125.441 917.085 124.899 916.946 124.224 916.946C123.813 916.946 123.432 916.99 123.08 917.078C122.728 917.166 122.427 917.305 122.178 917.496C121.929 917.687 121.745 917.943 121.628 918.266H119.626C119.729 917.738 119.927 917.291 120.22 916.924C120.528 916.543 120.895 916.235 121.32 916C121.76 915.751 122.229 915.567 122.728 915.45C123.227 915.333 123.725 915.274 124.224 915.274C125.339 915.274 126.233 915.501 126.908 915.956C127.583 916.396 128.074 917.027 128.382 917.848C128.69 918.655 128.844 919.615 128.844 920.73V927H127.282L127.172 925.526C126.849 925.966 126.461 926.303 126.006 926.538C125.551 926.773 125.082 926.927 124.598 927C124.129 927.088 123.681 927.132 123.256 927.132ZM123.432 925.482C124.165 925.482 124.796 925.365 125.324 925.13C125.867 924.881 126.285 924.521 126.578 924.052C126.871 923.583 127.018 923.011 127.018 922.336V921.764H124.972C124.488 921.764 124.011 921.771 123.542 921.786C123.073 921.801 122.647 921.859 122.266 921.962C121.885 922.065 121.577 922.241 121.342 922.49C121.122 922.739 121.012 923.099 121.012 923.568C121.012 924.008 121.122 924.367 121.342 924.646C121.577 924.925 121.877 925.137 122.244 925.284C122.625 925.416 123.021 925.482 123.432 925.482ZM131.455 921.654V919.938H138.275V921.654H131.455ZM139.947 931.29V925.262C140.475 925.262 140.871 925.167 141.135 924.976C141.414 924.771 141.627 924.499 141.773 924.162C141.891 923.869 141.993 923.517 142.081 923.106C142.169 922.681 142.243 922.226 142.301 921.742C142.375 921.243 142.426 920.745 142.455 920.246C142.558 918.779 142.631 917.313 142.675 915.846C142.719 914.379 142.749 912.913 142.763 911.446H152.707V925.262H154.577V931.29H152.663V927H141.861V931.29H139.947ZM143.489 925.262H150.793V913.184H144.633L144.435 919.234C144.421 919.586 144.399 920.004 144.369 920.488C144.355 920.972 144.311 921.485 144.237 922.028C144.179 922.556 144.091 923.099 143.973 923.656C143.856 924.213 143.695 924.749 143.489 925.262ZM161.155 927.132C159.938 927.132 158.918 926.883 158.097 926.384C157.276 925.871 156.66 925.167 156.249 924.272C155.853 923.377 155.655 922.358 155.655 921.214C155.655 920.055 155.853 919.036 156.249 918.156C156.66 917.261 157.276 916.557 158.097 916.044C158.918 915.531 159.952 915.274 161.199 915.274C162.416 915.274 163.428 915.531 164.235 916.044C165.056 916.557 165.665 917.261 166.061 918.156C166.472 919.036 166.677 920.055 166.677 921.214C166.677 922.358 166.472 923.377 166.061 924.272C165.65 925.167 165.034 925.871 164.213 926.384C163.406 926.883 162.387 927.132 161.155 927.132ZM161.155 925.482C162.006 925.482 162.695 925.291 163.223 924.91C163.766 924.529 164.162 924.015 164.411 923.37C164.675 922.725 164.807 922.006 164.807 921.214C164.807 920.422 164.675 919.703 164.411 919.058C164.162 918.413 163.766 917.899 163.223 917.518C162.695 917.137 162.006 916.946 161.155 916.946C160.319 916.946 159.63 917.137 159.087 917.518C158.559 917.899 158.163 918.413 157.899 919.058C157.65 919.703 157.525 920.422 157.525 921.214C157.525 922.006 157.65 922.725 157.899 923.37C158.163 924.015 158.559 924.529 159.087 924.91C159.63 925.291 160.319 925.482 161.155 925.482ZM168.739 927V915.406H170.609V920.488H176.417V915.406H178.287V927H176.417V922.138H170.609V927H168.739ZM181.177 931.972V930.19C181.895 930.19 182.467 930.087 182.893 929.882C183.318 929.691 183.67 929.383 183.949 928.958C184.242 928.547 184.521 928.019 184.785 927.374L179.703 915.406H181.903L185.819 925.174L189.031 915.406H191.143L187.887 924.536C187.725 925.005 187.542 925.533 187.337 926.12C187.131 926.707 186.904 927.301 186.655 927.902C186.405 928.518 186.127 929.083 185.819 929.596C185.525 930.124 185.195 930.549 184.829 930.872C184.521 931.151 184.22 931.371 183.927 931.532C183.633 931.693 183.274 931.803 182.849 931.862C182.438 931.935 181.881 931.972 181.177 931.972Z" fill="#D7CFEB"/>
<path d="M85.914 991V975.446H87.828V982.618H90.138L95.198 975.446H97.398L91.81 983.168L97.442 991H95.176L90.292 984.356H87.828V991H85.914ZM98.784 995.18V979.406H100.566L100.654 981.188C101.05 980.557 101.585 980.081 102.26 979.758C102.949 979.435 103.69 979.274 104.482 979.274C105.655 979.274 106.616 979.538 107.364 980.066C108.112 980.579 108.662 981.283 109.014 982.178C109.381 983.073 109.564 984.085 109.564 985.214C109.564 986.343 109.381 987.355 109.014 988.25C108.647 989.145 108.083 989.849 107.32 990.362C106.557 990.875 105.582 991.132 104.394 991.132C103.807 991.132 103.279 991.073 102.81 990.956C102.341 990.824 101.93 990.641 101.578 990.406C101.226 990.171 100.918 989.907 100.654 989.614V995.18H98.784ZM104.24 989.482C105.091 989.482 105.765 989.291 106.264 988.91C106.763 988.514 107.122 987.993 107.342 987.348C107.577 986.703 107.694 985.991 107.694 985.214C107.694 984.422 107.577 983.703 107.342 983.058C107.122 982.413 106.755 981.899 106.242 981.518C105.729 981.137 105.047 980.946 104.196 980.946C103.433 980.946 102.781 981.144 102.238 981.54C101.71 981.921 101.307 982.442 101.028 983.102C100.749 983.747 100.61 984.459 100.61 985.236C100.61 986.043 100.742 986.769 101.006 987.414C101.27 988.059 101.673 988.565 102.216 988.932C102.759 989.299 103.433 989.482 104.24 989.482ZM115.253 991.132C114.725 991.132 114.212 991.066 113.713 990.934C113.229 990.787 112.789 990.575 112.393 990.296C112.012 990.003 111.704 989.643 111.469 989.218C111.249 988.778 111.139 988.272 111.139 987.7C111.139 987.04 111.257 986.483 111.491 986.028C111.741 985.573 112.071 985.214 112.481 984.95C112.892 984.686 113.369 984.495 113.911 984.378C114.454 984.261 115.019 984.202 115.605 984.202H119.015C119.015 983.542 118.92 982.97 118.729 982.486C118.553 982.002 118.26 981.628 117.849 981.364C117.439 981.085 116.896 980.946 116.221 980.946C115.811 980.946 115.429 980.99 115.077 981.078C114.725 981.166 114.425 981.305 114.175 981.496C113.926 981.687 113.743 981.943 113.625 982.266H111.623C111.726 981.738 111.924 981.291 112.217 980.924C112.525 980.543 112.892 980.235 113.317 980C113.757 979.751 114.227 979.567 114.725 979.45C115.224 979.333 115.723 979.274 116.221 979.274C117.336 979.274 118.231 979.501 118.905 979.956C119.58 980.396 120.071 981.027 120.379 981.848C120.687 982.655 120.841 983.615 120.841 984.73V991H119.279L119.169 989.526C118.847 989.966 118.458 990.303 118.003 990.538C117.549 990.773 117.079 990.927 116.595 991C116.126 991.088 115.679 991.132 115.253 991.132ZM115.429 989.482C116.163 989.482 116.793 989.365 117.321 989.13C117.864 988.881 118.282 988.521 118.575 988.052C118.869 987.583 119.015 987.011 119.015 986.336V985.764H116.969C116.485 985.764 116.009 985.771 115.539 985.786C115.07 985.801 114.645 985.859 114.263 985.962C113.882 986.065 113.574 986.241 113.339 986.49C113.119 986.739 113.009 987.099 113.009 987.568C113.009 988.008 113.119 988.367 113.339 988.646C113.574 988.925 113.875 989.137 114.241 989.284C114.623 989.416 115.019 989.482 115.429 989.482ZM128.249 991.132C127.031 991.132 126.019 990.883 125.213 990.384C124.421 989.871 123.827 989.167 123.431 988.272C123.049 987.377 122.859 986.365 122.859 985.236C122.859 984.136 123.057 983.139 123.453 982.244C123.863 981.335 124.479 980.616 125.301 980.088C126.137 979.545 127.193 979.274 128.469 979.274C129.261 979.274 129.965 979.406 130.581 979.67C131.211 979.934 131.732 980.323 132.143 980.836C132.553 981.335 132.839 981.965 133.001 982.728H131.087C130.867 982.083 130.515 981.628 130.031 981.364C129.561 981.085 129.004 980.946 128.359 980.946C127.479 980.946 126.775 981.151 126.247 981.562C125.719 981.973 125.33 982.508 125.081 983.168C124.846 983.813 124.729 984.503 124.729 985.236C124.729 985.999 124.853 986.703 125.103 987.348C125.352 987.993 125.741 988.514 126.269 988.91C126.797 989.291 127.479 989.482 128.315 989.482C128.931 989.482 129.51 989.35 130.053 989.086C130.61 988.822 130.977 988.353 131.153 987.678H133.089C132.942 988.47 132.627 989.123 132.143 989.636C131.673 990.149 131.094 990.531 130.405 990.78C129.73 991.015 129.011 991.132 128.249 991.132ZM135.019 991V979.406H136.889V984.488H142.697V979.406H144.567V991H142.697V986.138H136.889V991H135.019ZM152.143 991.132C150.925 991.132 149.906 990.883 149.085 990.384C148.263 989.871 147.647 989.167 147.237 988.272C146.841 987.377 146.643 986.358 146.643 985.214C146.643 984.055 146.841 983.036 147.237 982.156C147.647 981.261 148.263 980.557 149.085 980.044C149.906 979.531 150.94 979.274 152.187 979.274C153.404 979.274 154.416 979.531 155.223 980.044C156.044 980.557 156.653 981.261 157.049 982.156C157.459 983.036 157.665 984.055 157.665 985.214C157.665 986.358 157.459 987.377 157.049 988.272C156.638 989.167 156.022 989.871 155.201 990.384C154.394 990.883 153.375 991.132 152.143 991.132ZM152.143 989.482C152.993 989.482 153.683 989.291 154.211 988.91C154.753 988.529 155.149 988.015 155.399 987.37C155.663 986.725 155.795 986.006 155.795 985.214C155.795 984.422 155.663 983.703 155.399 983.058C155.149 982.413 154.753 981.899 154.211 981.518C153.683 981.137 152.993 980.946 152.143 980.946C151.307 980.946 150.617 981.137 150.075 981.518C149.547 981.899 149.151 982.413 148.887 983.058C148.637 983.703 148.513 984.422 148.513 985.214C148.513 986.006 148.637 986.725 148.887 987.37C149.151 988.015 149.547 988.529 150.075 988.91C150.617 989.291 151.307 989.482 152.143 989.482ZM158.479 994.564V989.372C158.904 989.372 159.241 989.255 159.491 989.02C159.755 988.785 159.96 988.477 160.107 988.096C160.253 987.715 160.363 987.304 160.437 986.864C160.51 986.409 160.569 985.977 160.613 985.566C160.686 984.891 160.73 984.224 160.745 983.564C160.774 982.889 160.789 982.354 160.789 981.958C160.803 981.533 160.811 981.107 160.811 980.682C160.811 980.257 160.811 979.831 160.811 979.406H169.039V989.372H170.557V994.564H168.753V991H160.283V994.564H158.479ZM161.449 989.372H167.169V981.056H162.593C162.578 981.672 162.563 982.361 162.549 983.124C162.534 983.887 162.505 984.598 162.461 985.258C162.446 985.639 162.409 986.072 162.351 986.556C162.307 987.04 162.219 987.531 162.087 988.03C161.955 988.514 161.742 988.961 161.449 989.372ZM175.788 991.132C175.26 991.132 174.746 991.066 174.248 990.934C173.764 990.787 173.324 990.575 172.928 990.296C172.546 990.003 172.238 989.643 172.004 989.218C171.784 988.778 171.674 988.272 171.674 987.7C171.674 987.04 171.791 986.483 172.026 986.028C172.275 985.573 172.605 985.214 173.016 984.95C173.426 984.686 173.903 984.495 174.446 984.378C174.988 984.261 175.553 984.202 176.14 984.202H179.55C179.55 983.542 179.454 982.97 179.264 982.486C179.088 982.002 178.794 981.628 178.384 981.364C177.973 981.085 177.43 980.946 176.756 980.946C176.345 980.946 175.964 980.99 175.612 981.078C175.26 981.166 174.959 981.305 174.71 981.496C174.46 981.687 174.277 981.943 174.16 982.266H172.158C172.26 981.738 172.458 981.291 172.752 980.924C173.06 980.543 173.426 980.235 173.852 980C174.292 979.751 174.761 979.567 175.26 979.45C175.758 979.333 176.257 979.274 176.756 979.274C177.87 979.274 178.765 979.501 179.44 979.956C180.114 980.396 180.606 981.027 180.914 981.848C181.222 982.655 181.376 983.615 181.376 984.73V991H179.814L179.704 989.526C179.381 989.966 178.992 990.303 178.538 990.538C178.083 990.773 177.614 990.927 177.13 991C176.66 991.088 176.213 991.132 175.788 991.132ZM175.964 989.482C176.697 989.482 177.328 989.365 177.856 989.13C178.398 988.881 178.816 988.521 179.11 988.052C179.403 987.583 179.55 987.011 179.55 986.336V985.764H177.504C177.02 985.764 176.543 985.771 176.074 985.786C175.604 985.801 175.179 985.859 174.798 985.962C174.416 986.065 174.108 986.241 173.874 986.49C173.654 986.739 173.544 987.099 173.544 987.568C173.544 988.008 173.654 988.367 173.874 988.646C174.108 988.925 174.409 989.137 174.776 989.284C175.157 989.416 175.553 989.482 175.964 989.482ZM183.833 995.18V979.406H185.615L185.703 981.188C186.099 980.557 186.634 980.081 187.309 979.758C187.998 979.435 188.739 979.274 189.531 979.274C190.704 979.274 191.665 979.538 192.413 980.066C193.161 980.579 193.711 981.283 194.063 982.178C194.43 983.073 194.613 984.085 194.613 985.214C194.613 986.343 194.43 987.355 194.063 988.25C193.696 989.145 193.132 989.849 192.369 990.362C191.606 990.875 190.631 991.132 189.443 991.132C188.856 991.132 188.328 991.073 187.859 990.956C187.39 990.824 186.979 990.641 186.627 990.406C186.275 990.171 185.967 989.907 185.703 989.614V995.18H183.833ZM189.289 989.482C190.14 989.482 190.814 989.291 191.313 988.91C191.812 988.514 192.171 987.993 192.391 987.348C192.626 986.703 192.743 985.991 192.743 985.214C192.743 984.422 192.626 983.703 192.391 983.058C192.171 982.413 191.804 981.899 191.291 981.518C190.778 981.137 190.096 980.946 189.245 980.946C188.482 980.946 187.83 981.144 187.287 981.54C186.759 981.921 186.356 982.442 186.077 983.102C185.798 983.747 185.659 984.459 185.659 985.236C185.659 986.043 185.791 986.769 186.055 987.414C186.319 988.059 186.722 988.565 187.265 988.932C187.808 989.299 188.482 989.482 189.289 989.482Z" fill="#D7CFEB"/>
<path d="M870.914 1029V1013.45H872.828V1020.49H881.166V1013.45H883.08V1029H881.166V1022.25H872.828V1029H870.914ZM891.078 1029.13C889.861 1029.13 888.842 1028.88 888.02 1028.38C887.199 1027.87 886.583 1027.17 886.172 1026.27C885.776 1025.38 885.578 1024.36 885.578 1023.21C885.578 1022.06 885.776 1021.04 886.172 1020.16C886.583 1019.26 887.199 1018.56 888.02 1018.04C888.842 1017.53 889.876 1017.27 891.122 1017.27C892.34 1017.27 893.352 1017.53 894.158 1018.04C894.98 1018.56 895.588 1019.26 895.984 1020.16C896.395 1021.04 896.6 1022.06 896.6 1023.21C896.6 1024.36 896.395 1025.38 895.984 1026.27C895.574 1027.17 894.958 1027.87 894.136 1028.38C893.33 1028.88 892.31 1029.13 891.078 1029.13ZM891.078 1027.48C891.929 1027.48 892.618 1027.29 893.146 1026.91C893.689 1026.53 894.085 1026.02 894.334 1025.37C894.598 1024.72 894.73 1024.01 894.73 1023.21C894.73 1022.42 894.598 1021.7 894.334 1021.06C894.085 1020.41 893.689 1019.9 893.146 1019.52C892.618 1019.14 891.929 1018.95 891.078 1018.95C890.242 1018.95 889.553 1019.14 889.01 1019.52C888.482 1019.9 888.086 1020.41 887.822 1021.06C887.573 1021.7 887.448 1022.42 887.448 1023.21C887.448 1024.01 887.573 1024.72 887.822 1025.37C888.086 1026.02 888.482 1026.53 889.01 1026.91C889.553 1027.29 890.242 1027.48 891.078 1027.48ZM898.662 1029V1017.41H903.15C903.664 1017.41 904.17 1017.44 904.668 1017.52C905.182 1017.57 905.644 1017.71 906.054 1017.91C906.48 1018.1 906.817 1018.39 907.066 1018.77C907.33 1019.15 907.462 1019.66 907.462 1020.29C907.462 1020.67 907.404 1021.02 907.286 1021.34C907.169 1021.65 906.993 1021.92 906.758 1022.16C906.538 1022.39 906.252 1022.6 905.9 1022.77C906.692 1022.95 907.264 1023.29 907.616 1023.81C907.968 1024.32 908.144 1024.91 908.144 1025.57C908.144 1026.15 908.034 1026.67 907.814 1027.11C907.609 1027.53 907.316 1027.89 906.934 1028.16C906.568 1028.44 906.135 1028.66 905.636 1028.8C905.152 1028.93 904.632 1029 904.074 1029H898.662ZM900.576 1027.37H903.634C904.089 1027.37 904.514 1027.33 904.91 1027.24C905.306 1027.15 905.629 1026.99 905.878 1026.76C906.128 1026.51 906.252 1026.15 906.252 1025.7C906.252 1025.23 906.142 1024.88 905.922 1024.64C905.717 1024.39 905.446 1024.23 905.108 1024.14C904.786 1024.04 904.434 1023.98 904.052 1023.96C903.671 1023.95 903.312 1023.94 902.974 1023.94H900.576V1027.37ZM900.576 1022.36H902.182C902.476 1022.36 902.813 1022.34 903.194 1022.31C903.59 1022.28 903.972 1022.22 904.338 1022.11C904.72 1022 905.028 1021.82 905.262 1021.59C905.512 1021.35 905.636 1021.03 905.636 1020.62C905.636 1020.08 905.482 1019.7 905.174 1019.5C904.881 1019.28 904.529 1019.15 904.118 1019.12C903.708 1019.08 903.326 1019.06 902.974 1019.06H900.576V1022.36ZM915.314 1029.13C914.096 1029.13 913.077 1028.88 912.256 1028.38C911.434 1027.87 910.818 1027.17 910.408 1026.27C910.012 1025.38 909.814 1024.36 909.814 1023.21C909.814 1022.06 910.012 1021.04 910.408 1020.16C910.818 1019.26 911.434 1018.56 912.256 1018.04C913.077 1017.53 914.111 1017.27 915.358 1017.27C916.575 1017.27 917.587 1017.53 918.394 1018.04C919.215 1018.56 919.824 1019.26 920.22 1020.16C920.63 1021.04 920.836 1022.06 920.836 1023.21C920.836 1024.36 920.63 1025.38 920.22 1026.27C919.809 1027.17 919.193 1027.87 918.372 1028.38C917.565 1028.88 916.546 1029.13 915.314 1029.13ZM915.314 1027.48C916.164 1027.48 916.854 1027.29 917.382 1026.91C917.924 1026.53 918.32 1026.02 918.57 1025.37C918.834 1024.72 918.966 1024.01 918.966 1023.21C918.966 1022.42 918.834 1021.7 918.57 1021.06C918.32 1020.41 917.924 1019.9 917.382 1019.52C916.854 1019.14 916.164 1018.95 915.314 1018.95C914.478 1018.95 913.788 1019.14 913.246 1019.52C912.718 1019.9 912.322 1020.41 912.058 1021.06C911.808 1021.7 911.684 1022.42 911.684 1023.21C911.684 1024.01 911.808 1024.72 912.058 1025.37C912.322 1026.02 912.718 1026.53 913.246 1026.91C913.788 1027.29 914.478 1027.48 915.314 1027.48ZM927.848 1029.13C926.63 1029.13 925.618 1028.88 924.812 1028.38C924.02 1027.87 923.426 1027.17 923.03 1026.27C922.648 1025.38 922.458 1024.37 922.458 1023.24C922.458 1022.14 922.656 1021.14 923.052 1020.24C923.462 1019.33 924.078 1018.62 924.9 1018.09C925.736 1017.55 926.792 1017.27 928.068 1017.27C928.86 1017.27 929.564 1017.41 930.18 1017.67C930.81 1017.93 931.331 1018.32 931.742 1018.84C932.152 1019.33 932.438 1019.97 932.6 1020.73H930.686C930.466 1020.08 930.114 1019.63 929.63 1019.36C929.16 1019.09 928.603 1018.95 927.958 1018.95C927.078 1018.95 926.374 1019.15 925.846 1019.56C925.318 1019.97 924.929 1020.51 924.68 1021.17C924.445 1021.81 924.328 1022.5 924.328 1023.24C924.328 1024 924.452 1024.7 924.702 1025.35C924.951 1025.99 925.34 1026.51 925.868 1026.91C926.396 1027.29 927.078 1027.48 927.914 1027.48C928.53 1027.48 929.109 1027.35 929.652 1027.09C930.209 1026.82 930.576 1026.35 930.752 1025.68H932.688C932.541 1026.47 932.226 1027.12 931.742 1027.64C931.272 1028.15 930.693 1028.53 930.004 1028.78C929.329 1029.01 928.61 1029.13 927.848 1029.13ZM934.618 1029V1017.41H936.488V1026.29C936.59 1026.09 936.73 1025.87 936.906 1025.63C937.082 1025.38 937.221 1025.19 937.324 1025.06L942.934 1017.41H944.782V1029H942.912V1020.11C942.794 1020.33 942.662 1020.54 942.516 1020.73C942.384 1020.92 942.259 1021.09 942.142 1021.26L936.444 1029H934.618ZM952.167 1029.13C951.434 1029.13 950.781 1029.03 950.209 1028.82C949.637 1028.6 949.146 1028.3 948.735 1027.92C948.325 1027.53 947.987 1027.06 947.723 1026.54C947.459 1025.99 947.261 1025.41 947.129 1024.78C946.997 1024.15 946.931 1023.48 946.931 1022.77C946.931 1021.64 946.953 1020.6 946.997 1019.63C947.056 1018.65 947.217 1017.77 947.481 1017.01C947.745 1016.23 948.193 1015.59 948.823 1015.07C949.454 1014.56 950.341 1014.2 951.485 1014C952.072 1013.89 952.651 1013.81 953.223 1013.73C953.795 1013.66 954.375 1013.59 954.961 1013.51C955.152 1013.48 955.35 1013.45 955.555 1013.42C955.761 1013.39 955.973 1013.36 956.193 1013.31C956.428 1013.27 956.648 1013.23 956.853 1013.2V1014.92C956.692 1014.98 956.516 1015.03 956.325 1015.07C956.149 1015.1 955.959 1015.13 955.753 1015.16C955.563 1015.19 955.365 1015.21 955.159 1015.23C954.969 1015.24 954.778 1015.26 954.587 1015.29C954.397 1015.31 954.213 1015.33 954.037 1015.36C953.524 1015.42 952.981 1015.48 952.409 1015.54C951.837 1015.58 951.295 1015.7 950.781 1015.89C950.283 1016.06 949.857 1016.41 949.505 1016.92C949.329 1017.19 949.175 1017.5 949.043 1017.87C948.926 1018.23 948.838 1018.61 948.779 1018.99C948.735 1019.36 948.706 1019.71 948.691 1020.05C948.985 1019.64 949.344 1019.31 949.769 1019.06C950.195 1018.79 950.649 1018.6 951.133 1018.48C951.617 1018.35 952.079 1018.29 952.519 1018.29C953.575 1018.29 954.47 1018.51 955.203 1018.95C955.937 1019.37 956.494 1019.98 956.875 1020.77C957.257 1021.56 957.447 1022.49 957.447 1023.54C957.447 1024.6 957.242 1025.55 956.831 1026.4C956.421 1027.24 955.819 1027.91 955.027 1028.41C954.25 1028.89 953.297 1029.13 952.167 1029.13ZM952.211 1027.48C952.945 1027.48 953.561 1027.31 954.059 1026.95C954.558 1026.6 954.932 1026.13 955.181 1025.55C955.445 1024.96 955.577 1024.31 955.577 1023.61C955.577 1022.92 955.445 1022.3 955.181 1021.76C954.932 1021.2 954.558 1020.76 954.059 1020.44C953.575 1020.12 952.974 1019.96 952.255 1019.96C951.551 1019.96 950.943 1020.13 950.429 1020.46C949.931 1020.8 949.542 1021.26 949.263 1021.83C948.999 1022.39 948.867 1022.99 948.867 1023.65C948.867 1024.33 948.992 1024.96 949.241 1025.55C949.491 1026.13 949.857 1026.6 950.341 1026.95C950.84 1027.31 951.463 1027.48 952.211 1027.48ZM959.519 1029V1017.41H961.389V1026.29C961.492 1026.09 961.631 1025.87 961.807 1025.63C961.983 1025.38 962.122 1025.19 962.225 1025.06L967.835 1017.41H969.683V1029H967.813V1020.11C967.696 1020.33 967.564 1020.54 967.417 1020.73C967.285 1020.92 967.16 1021.09 967.043 1021.26L961.345 1029H959.519ZM972.184 1033.18V1017.41H973.966L974.054 1019.19C974.45 1018.56 974.986 1018.08 975.66 1017.76C976.35 1017.44 977.09 1017.27 977.882 1017.27C979.056 1017.27 980.016 1017.54 980.764 1018.07C981.512 1018.58 982.062 1019.28 982.414 1020.18C982.781 1021.07 982.964 1022.08 982.964 1023.21C982.964 1024.34 982.781 1025.36 982.414 1026.25C982.048 1027.14 981.483 1027.85 980.72 1028.36C979.958 1028.88 978.982 1029.13 977.794 1029.13C977.208 1029.13 976.68 1029.07 976.21 1028.96C975.741 1028.82 975.33 1028.64 974.978 1028.41C974.626 1028.17 974.318 1027.91 974.054 1027.61V1033.18H972.184ZM977.64 1027.48C978.491 1027.48 979.166 1027.29 979.664 1026.91C980.163 1026.51 980.522 1025.99 980.742 1025.35C980.977 1024.7 981.094 1023.99 981.094 1023.21C981.094 1022.42 980.977 1021.7 980.742 1021.06C980.522 1020.41 980.156 1019.9 979.642 1019.52C979.129 1019.14 978.447 1018.95 977.596 1018.95C976.834 1018.95 976.181 1019.14 975.638 1019.54C975.11 1019.92 974.707 1020.44 974.428 1021.1C974.15 1021.75 974.01 1022.46 974.01 1023.24C974.01 1024.04 974.142 1024.77 974.406 1025.41C974.67 1026.06 975.074 1026.57 975.616 1026.93C976.159 1027.3 976.834 1027.48 977.64 1027.48ZM990.101 1029.13C988.883 1029.13 987.871 1028.88 987.065 1028.38C986.273 1027.87 985.679 1027.17 985.283 1026.27C984.901 1025.38 984.711 1024.37 984.711 1023.24C984.711 1022.14 984.909 1021.14 985.305 1020.24C985.715 1019.33 986.331 1018.62 987.153 1018.09C987.989 1017.55 989.045 1017.27 990.321 1017.27C991.113 1017.27 991.817 1017.41 992.433 1017.67C993.063 1017.93 993.584 1018.32 993.995 1018.84C994.405 1019.33 994.691 1019.97 994.853 1020.73H992.939C992.719 1020.08 992.367 1019.63 991.883 1019.36C991.413 1019.09 990.856 1018.95 990.211 1018.95C989.331 1018.95 988.627 1019.15 988.099 1019.56C987.571 1019.97 987.182 1020.51 986.933 1021.17C986.698 1021.81 986.581 1022.5 986.581 1023.24C986.581 1024 986.705 1024.7 986.955 1025.35C987.204 1025.99 987.593 1026.51 988.121 1026.91C988.649 1027.29 989.331 1027.48 990.167 1027.48C990.783 1027.48 991.362 1027.35 991.905 1027.09C992.462 1026.82 992.829 1026.35 993.005 1025.68H994.941C994.794 1026.47 994.479 1027.12 993.995 1027.64C993.525 1028.15 992.946 1028.53 992.257 1028.78C991.582 1029.01 990.863 1029.13 990.101 1029.13ZM996.871 1029V1017.41H998.741V1022.4H1000.76L1004.2 1017.41H1006.33L1002.46 1022.93L1006.66 1029H1004.46L1000.98 1024.03H998.741V1029H996.871Z" fill="#D7CFEB"/>
<path d="M368.914 772V756.446H371.774L376.526 765.004L381.212 756.446H384.006V772H382.092V758.382L376.922 767.952H376.042L370.828 758.382V772H368.914ZM392.022 772.132C390.804 772.132 389.785 771.883 388.964 771.384C388.142 770.871 387.526 770.167 387.116 769.272C386.72 768.377 386.522 767.358 386.522 766.214C386.522 765.055 386.72 764.036 387.116 763.156C387.526 762.261 388.142 761.557 388.964 761.044C389.785 760.531 390.819 760.274 392.066 760.274C393.283 760.274 394.295 760.531 395.102 761.044C395.923 761.557 396.532 762.261 396.928 763.156C397.338 764.036 397.544 765.055 397.544 766.214C397.544 767.358 397.338 768.377 396.928 769.272C396.517 770.167 395.901 770.871 395.08 771.384C394.273 771.883 393.254 772.132 392.022 772.132ZM392.022 770.482C392.872 770.482 393.562 770.291 394.09 769.91C394.632 769.529 395.028 769.015 395.278 768.37C395.542 767.725 395.674 767.006 395.674 766.214C395.674 765.422 395.542 764.703 395.278 764.058C395.028 763.413 394.632 762.899 394.09 762.518C393.562 762.137 392.872 761.946 392.022 761.946C391.186 761.946 390.496 762.137 389.954 762.518C389.426 762.899 389.03 763.413 388.766 764.058C388.516 764.703 388.392 765.422 388.392 766.214C388.392 767.006 388.516 767.725 388.766 768.37C389.03 769.015 389.426 769.529 389.954 769.91C390.496 770.291 391.186 770.482 392.022 770.482ZM404.556 772.132C403.338 772.132 402.326 771.883 401.52 771.384C400.728 770.871 400.134 770.167 399.738 769.272C399.356 768.377 399.166 767.365 399.166 766.236C399.166 765.136 399.364 764.139 399.76 763.244C400.17 762.335 400.786 761.616 401.608 761.088C402.444 760.545 403.5 760.274 404.776 760.274C405.568 760.274 406.272 760.406 406.888 760.67C407.518 760.934 408.039 761.323 408.45 761.836C408.86 762.335 409.146 762.965 409.308 763.728H407.394C407.174 763.083 406.822 762.628 406.338 762.364C405.868 762.085 405.311 761.946 404.666 761.946C403.786 761.946 403.082 762.151 402.554 762.562C402.026 762.973 401.637 763.508 401.388 764.168C401.153 764.813 401.036 765.503 401.036 766.236C401.036 766.999 401.16 767.703 401.41 768.348C401.659 768.993 402.048 769.514 402.576 769.91C403.104 770.291 403.786 770.482 404.622 770.482C405.238 770.482 405.817 770.35 406.36 770.086C406.917 769.822 407.284 769.353 407.46 768.678H409.396C409.249 769.47 408.934 770.123 408.45 770.636C407.98 771.149 407.401 771.531 406.712 771.78C406.037 772.015 405.318 772.132 404.556 772.132ZM411.326 772V760.406H413.196V765.4H415.22L418.652 760.406H420.786L416.914 765.928L421.116 772H418.916L415.44 767.028H413.196V772H411.326ZM427.139 772.132C425.922 772.132 424.903 771.883 424.081 771.384C423.26 770.871 422.644 770.167 422.233 769.272C421.837 768.377 421.639 767.358 421.639 766.214C421.639 765.055 421.837 764.036 422.233 763.156C422.644 762.261 423.26 761.557 424.081 761.044C424.903 760.531 425.937 760.274 427.183 760.274C428.401 760.274 429.413 760.531 430.219 761.044C431.041 761.557 431.649 762.261 432.045 763.156C432.456 764.036 432.661 765.055 432.661 766.214C432.661 767.358 432.456 768.377 432.045 769.272C431.635 770.167 431.019 770.871 430.197 771.384C429.391 771.883 428.371 772.132 427.139 772.132ZM427.139 770.482C427.99 770.482 428.679 770.291 429.207 769.91C429.75 769.529 430.146 769.015 430.395 768.37C430.659 767.725 430.791 767.006 430.791 766.214C430.791 765.422 430.659 764.703 430.395 764.058C430.146 763.413 429.75 762.899 429.207 762.518C428.679 762.137 427.99 761.946 427.139 761.946C426.303 761.946 425.614 762.137 425.071 762.518C424.543 762.899 424.147 763.413 423.883 764.058C423.634 764.703 423.509 765.422 423.509 766.214C423.509 767.006 423.634 767.725 423.883 768.37C424.147 769.015 424.543 769.529 425.071 769.91C425.614 770.291 426.303 770.482 427.139 770.482ZM434.723 772V760.406H439.211C439.725 760.406 440.231 760.443 440.729 760.516C441.243 760.575 441.705 760.707 442.115 760.912C442.541 761.103 442.878 761.389 443.127 761.77C443.391 762.151 443.523 762.657 443.523 763.288C443.523 763.669 443.465 764.021 443.347 764.344C443.23 764.652 443.054 764.923 442.819 765.158C442.599 765.393 442.313 765.598 441.961 765.774C442.753 765.95 443.325 766.295 443.677 766.808C444.029 767.321 444.205 767.908 444.205 768.568C444.205 769.155 444.095 769.668 443.875 770.108C443.67 770.533 443.377 770.885 442.995 771.164C442.629 771.443 442.196 771.655 441.697 771.802C441.213 771.934 440.693 772 440.135 772H434.723ZM436.637 770.372H439.695C440.15 770.372 440.575 770.328 440.971 770.24C441.367 770.152 441.69 769.991 441.939 769.756C442.189 769.507 442.313 769.155 442.313 768.7C442.313 768.231 442.203 767.879 441.983 767.644C441.778 767.395 441.507 767.226 441.169 767.138C440.847 767.035 440.495 766.977 440.113 766.962C439.732 766.947 439.373 766.94 439.035 766.94H436.637V770.372ZM436.637 765.356H438.243C438.537 765.356 438.874 765.341 439.255 765.312C439.651 765.283 440.033 765.217 440.399 765.114C440.781 764.997 441.089 764.821 441.323 764.586C441.573 764.351 441.697 764.029 441.697 763.618C441.697 763.075 441.543 762.701 441.235 762.496C440.942 762.276 440.59 762.151 440.179 762.122C439.769 762.078 439.387 762.056 439.035 762.056H436.637V765.356ZM451.264 772.132C450.047 772.132 449.035 771.883 448.228 771.384C447.436 770.871 446.842 770.167 446.446 769.272C446.065 768.377 445.874 767.365 445.874 766.236C445.874 765.136 446.072 764.139 446.468 763.244C446.879 762.335 447.495 761.616 448.316 761.088C449.152 760.545 450.208 760.274 451.484 760.274C452.276 760.274 452.98 760.406 453.596 760.67C454.227 760.934 454.748 761.323 455.158 761.836C455.569 762.335 455.855 762.965 456.016 763.728H454.102C453.882 763.083 453.53 762.628 453.046 762.364C452.577 762.085 452.02 761.946 451.374 761.946C450.494 761.946 449.79 762.151 449.262 762.562C448.734 762.973 448.346 763.508 448.096 764.168C447.862 764.813 447.744 765.503 447.744 766.236C447.744 766.999 447.869 767.703 448.118 768.348C448.368 768.993 448.756 769.514 449.284 769.91C449.812 770.291 450.494 770.482 451.33 770.482C451.946 770.482 452.526 770.35 453.068 770.086C453.626 769.822 453.992 769.353 454.168 768.678H456.104C455.958 769.47 455.642 770.123 455.158 770.636C454.689 771.149 454.11 771.531 453.42 771.78C452.746 772.015 452.027 772.132 451.264 772.132ZM458.035 772V760.406H459.905V765.4H461.929L465.361 760.406H467.495L463.623 765.928L467.825 772H465.625L462.149 767.028H459.905V772H458.035ZM472.506 772.132C471.978 772.132 471.465 772.066 470.966 771.934C470.482 771.787 470.042 771.575 469.646 771.296C469.265 771.003 468.957 770.643 468.722 770.218C468.502 769.778 468.392 769.272 468.392 768.7C468.392 768.04 468.509 767.483 468.744 767.028C468.993 766.573 469.323 766.214 469.734 765.95C470.145 765.686 470.621 765.495 471.164 765.378C471.707 765.261 472.271 765.202 472.858 765.202H476.268C476.268 764.542 476.173 763.97 475.982 763.486C475.806 763.002 475.513 762.628 475.102 762.364C474.691 762.085 474.149 761.946 473.474 761.946C473.063 761.946 472.682 761.99 472.33 762.078C471.978 762.166 471.677 762.305 471.428 762.496C471.179 762.687 470.995 762.943 470.878 763.266H468.876C468.979 762.738 469.177 762.291 469.47 761.924C469.778 761.543 470.145 761.235 470.57 761C471.01 760.751 471.479 760.567 471.978 760.45C472.477 760.333 472.975 760.274 473.474 760.274C474.589 760.274 475.483 760.501 476.158 760.956C476.833 761.396 477.324 762.027 477.632 762.848C477.94 763.655 478.094 764.615 478.094 765.73V772H476.532L476.422 770.526C476.099 770.966 475.711 771.303 475.256 771.538C474.801 771.773 474.332 771.927 473.848 772C473.379 772.088 472.931 772.132 472.506 772.132ZM472.682 770.482C473.415 770.482 474.046 770.365 474.574 770.13C475.117 769.881 475.535 769.521 475.828 769.052C476.121 768.583 476.268 768.011 476.268 767.336V766.764H474.222C473.738 766.764 473.261 766.771 472.792 766.786C472.323 766.801 471.897 766.859 471.516 766.962C471.135 767.065 470.827 767.241 470.592 767.49C470.372 767.739 470.262 768.099 470.262 768.568C470.262 769.008 470.372 769.367 470.592 769.646C470.827 769.925 471.127 770.137 471.494 770.284C471.875 770.416 472.271 770.482 472.682 770.482ZM479.825 772L482.839 767.424C482.003 767.189 481.343 766.808 480.859 766.28C480.375 765.737 480.133 765.019 480.133 764.124C480.133 763.42 480.236 762.833 480.441 762.364C480.646 761.88 480.947 761.499 481.343 761.22C481.739 760.927 482.216 760.721 482.773 760.604C483.33 760.472 483.968 760.406 484.687 760.406H489.351V772H487.481V767.71H484.819L482.003 772H479.825ZM486.095 766.082H487.481V762.056H484.995C484.555 762.056 484.152 762.078 483.785 762.122C483.418 762.166 483.103 762.261 482.839 762.408C482.59 762.54 482.392 762.738 482.245 763.002C482.098 763.251 482.025 763.596 482.025 764.036C482.025 764.52 482.142 764.901 482.377 765.18C482.626 765.459 482.942 765.664 483.323 765.796C483.719 765.913 484.159 765.994 484.643 766.038C485.127 766.067 485.611 766.082 486.095 766.082ZM373.534 803.132C372.317 803.132 371.297 802.883 370.476 802.384C369.655 801.871 369.039 801.167 368.628 800.272C368.232 799.377 368.034 798.358 368.034 797.214C368.034 796.055 368.232 795.036 368.628 794.156C369.039 793.261 369.655 792.557 370.476 792.044C371.297 791.531 372.331 791.274 373.578 791.274C374.795 791.274 375.807 791.531 376.614 792.044C377.435 792.557 378.044 793.261 378.44 794.156C378.851 795.036 379.056 796.055 379.056 797.214C379.056 798.358 378.851 799.377 378.44 800.272C378.029 801.167 377.413 801.871 376.592 802.384C375.785 802.883 374.766 803.132 373.534 803.132ZM373.534 801.482C374.385 801.482 375.074 801.291 375.602 800.91C376.145 800.529 376.541 800.015 376.79 799.37C377.054 798.725 377.186 798.006 377.186 797.214C377.186 796.422 377.054 795.703 376.79 795.058C376.541 794.413 376.145 793.899 375.602 793.518C375.074 793.137 374.385 792.946 373.534 792.946C372.698 792.946 372.009 793.137 371.466 793.518C370.938 793.899 370.542 794.413 370.278 795.058C370.029 795.703 369.904 796.422 369.904 797.214C369.904 798.006 370.029 798.725 370.278 799.37C370.542 800.015 370.938 800.529 371.466 800.91C372.009 801.291 372.698 801.482 373.534 801.482ZM386.217 803.132C385.483 803.132 384.831 803.029 384.259 802.824C383.687 802.604 383.195 802.303 382.785 801.922C382.374 801.526 382.037 801.064 381.773 800.536C381.509 799.993 381.311 799.407 381.179 798.776C381.047 798.145 380.981 797.478 380.981 796.774C380.981 795.645 381.003 794.596 381.047 793.628C381.105 792.645 381.267 791.773 381.531 791.01C381.795 790.233 382.242 789.587 382.873 789.074C383.503 788.561 384.391 788.201 385.535 787.996C386.121 787.893 386.701 787.805 387.273 787.732C387.845 787.659 388.424 787.585 389.011 787.512C389.201 787.483 389.399 787.453 389.605 787.424C389.81 787.395 390.023 787.358 390.243 787.314C390.477 787.27 390.697 787.233 390.903 787.204V788.92C390.741 788.979 390.565 789.03 390.375 789.074C390.199 789.103 390.008 789.133 389.803 789.162C389.612 789.191 389.414 789.213 389.209 789.228C389.018 789.243 388.827 789.265 388.637 789.294C388.446 789.309 388.263 789.331 388.087 789.36C387.573 789.419 387.031 789.477 386.459 789.536C385.887 789.58 385.344 789.697 384.831 789.888C384.332 790.064 383.907 790.409 383.555 790.922C383.379 791.186 383.225 791.501 383.093 791.868C382.975 792.235 382.887 792.609 382.829 792.99C382.785 793.357 382.755 793.709 382.741 794.046C383.034 793.635 383.393 793.305 383.819 793.056C384.244 792.792 384.699 792.601 385.183 792.484C385.667 792.352 386.129 792.286 386.569 792.286C387.625 792.286 388.519 792.506 389.253 792.946C389.986 793.371 390.543 793.98 390.925 794.772C391.306 795.564 391.497 796.488 391.497 797.544C391.497 798.6 391.291 799.553 390.881 800.404C390.47 801.24 389.869 801.907 389.077 802.406C388.299 802.89 387.346 803.132 386.217 803.132ZM386.261 801.482C386.994 801.482 387.61 801.306 388.109 800.954C388.607 800.602 388.981 800.133 389.231 799.546C389.495 798.959 389.627 798.314 389.627 797.61C389.627 796.921 389.495 796.305 389.231 795.762C388.981 795.205 388.607 794.765 388.109 794.442C387.625 794.119 387.023 793.958 386.305 793.958C385.601 793.958 384.992 794.127 384.479 794.464C383.98 794.801 383.591 795.256 383.313 795.828C383.049 796.385 382.917 796.994 382.917 797.654C382.917 798.329 383.041 798.959 383.291 799.546C383.54 800.133 383.907 800.602 384.391 800.954C384.889 801.306 385.513 801.482 386.261 801.482ZM392.405 803.022V801.394C392.699 801.394 392.963 801.335 393.197 801.218C393.432 801.086 393.637 800.895 393.813 800.646C394.019 800.353 394.18 799.927 394.297 799.37C394.415 798.813 394.495 798.219 394.539 797.588C394.598 796.884 394.642 796.195 394.671 795.52C394.701 794.831 394.723 794.149 394.737 793.474C394.767 792.799 394.781 792.11 394.781 791.406H402.833V803H400.963V793.056H396.607C396.593 793.555 396.571 794.061 396.541 794.574C396.527 795.073 396.505 795.579 396.475 796.092C396.461 796.591 396.439 797.097 396.409 797.61C396.395 798.197 396.336 798.857 396.233 799.59C396.131 800.323 395.911 800.991 395.573 801.592C395.251 802.164 394.855 802.545 394.385 802.736C393.931 802.927 393.271 803.022 392.405 803.022ZM409.05 803.132C408.522 803.132 408.008 803.066 407.51 802.934C407.026 802.787 406.586 802.575 406.19 802.296C405.808 802.003 405.5 801.643 405.266 801.218C405.046 800.778 404.936 800.272 404.936 799.7C404.936 799.04 405.053 798.483 405.288 798.028C405.537 797.573 405.867 797.214 406.278 796.95C406.688 796.686 407.165 796.495 407.708 796.378C408.25 796.261 408.815 796.202 409.402 796.202H412.812C412.812 795.542 412.716 794.97 412.526 794.486C412.35 794.002 412.056 793.628 411.646 793.364C411.235 793.085 410.692 792.946 410.018 792.946C409.607 792.946 409.226 792.99 408.874 793.078C408.522 793.166 408.221 793.305 407.972 793.496C407.722 793.687 407.539 793.943 407.422 794.266H405.42C405.522 793.738 405.72 793.291 406.014 792.924C406.322 792.543 406.688 792.235 407.114 792C407.554 791.751 408.023 791.567 408.522 791.45C409.02 791.333 409.519 791.274 410.018 791.274C411.132 791.274 412.027 791.501 412.702 791.956C413.376 792.396 413.868 793.027 414.176 793.848C414.484 794.655 414.638 795.615 414.638 796.73V803H413.076L412.966 801.526C412.643 801.966 412.254 802.303 411.8 802.538C411.345 802.773 410.876 802.927 410.392 803C409.922 803.088 409.475 803.132 409.05 803.132ZM409.226 801.482C409.959 801.482 410.59 801.365 411.118 801.13C411.66 800.881 412.078 800.521 412.372 800.052C412.665 799.583 412.812 799.011 412.812 798.336V797.764H410.766C410.282 797.764 409.805 797.771 409.336 797.786C408.866 797.801 408.441 797.859 408.06 797.962C407.678 798.065 407.37 798.241 407.136 798.49C406.916 798.739 406.806 799.099 406.806 799.568C406.806 800.008 406.916 800.367 407.136 800.646C407.37 800.925 407.671 801.137 408.038 801.284C408.419 801.416 408.815 801.482 409.226 801.482ZM422.045 803.132C420.828 803.132 419.816 802.883 419.009 802.384C418.217 801.871 417.623 801.167 417.227 800.272C416.846 799.377 416.655 798.365 416.655 797.236C416.655 796.136 416.853 795.139 417.249 794.244C417.66 793.335 418.276 792.616 419.097 792.088C419.933 791.545 420.989 791.274 422.265 791.274C423.057 791.274 423.761 791.406 424.377 791.67C425.008 791.934 425.528 792.323 425.939 792.836C426.35 793.335 426.636 793.965 426.797 794.728H424.883C424.663 794.083 424.311 793.628 423.827 793.364C423.358 793.085 422.8 792.946 422.155 792.946C421.275 792.946 420.571 793.151 420.043 793.562C419.515 793.973 419.126 794.508 418.877 795.168C418.642 795.813 418.525 796.503 418.525 797.236C418.525 797.999 418.65 798.703 418.899 799.348C419.148 799.993 419.537 800.514 420.065 800.91C420.593 801.291 421.275 801.482 422.111 801.482C422.727 801.482 423.306 801.35 423.849 801.086C424.406 800.822 424.773 800.353 424.949 799.678H426.885C426.738 800.47 426.423 801.123 425.939 801.636C425.47 802.149 424.89 802.531 424.201 802.78C423.526 803.015 422.808 803.132 422.045 803.132ZM431.521 803V793.056H427.539V791.406H437.373V793.056H433.391V803H431.521ZM438.602 803V791.406H440.516V795.828H443.068C443.757 795.828 444.373 795.887 444.916 796.004C445.473 796.107 445.95 796.29 446.346 796.554C446.742 796.818 447.042 797.177 447.248 797.632C447.468 798.072 447.578 798.637 447.578 799.326C447.578 799.957 447.468 800.507 447.248 800.976C447.028 801.431 446.72 801.812 446.324 802.12C445.928 802.413 445.451 802.633 444.894 802.78C444.351 802.927 443.75 803 443.09 803H438.602ZM440.516 801.372H441.616C442.129 801.372 442.62 801.357 443.09 801.328C443.574 801.299 444.014 801.225 444.41 801.108C444.806 800.991 445.114 800.8 445.334 800.536C445.568 800.257 445.686 799.876 445.686 799.392C445.686 798.923 445.59 798.563 445.4 798.314C445.224 798.05 444.989 797.859 444.696 797.742C444.402 797.61 444.08 797.529 443.728 797.5C443.39 797.471 443.053 797.456 442.716 797.456H440.516V801.372Z" fill="#D7CFEB"/>
<path d="M336.206 517.176C334.607 517.176 333.273 516.839 332.202 516.164C331.146 515.475 330.354 514.536 329.826 513.348C329.313 512.145 329.056 510.774 329.056 509.234C329.056 507.709 329.32 506.352 329.848 505.164C330.376 503.961 331.168 503.015 332.224 502.326C333.295 501.622 334.637 501.27 336.25 501.27C337.394 501.27 338.377 501.453 339.198 501.82C340.034 502.172 340.709 502.663 341.222 503.294C341.735 503.925 342.087 504.665 342.278 505.516H340.342C340.122 504.753 339.645 504.145 338.912 503.69C338.193 503.235 337.284 503.008 336.184 503.008C334.952 503.008 333.955 503.301 333.192 503.888C332.444 504.46 331.894 505.215 331.542 506.154C331.19 507.078 331.014 508.083 331.014 509.168C331.014 510.312 331.197 511.361 331.564 512.314C331.931 513.267 332.503 514.03 333.28 514.602C334.057 515.159 335.047 515.438 336.25 515.438C336.983 515.438 337.636 515.335 338.208 515.13C338.795 514.925 339.279 514.631 339.66 514.25C340.056 513.869 340.327 513.429 340.474 512.93H342.564C342.344 513.781 341.948 514.529 341.376 515.174C340.819 515.805 340.107 516.296 339.242 516.648C338.377 517 337.365 517.176 336.206 517.176ZM348.371 517.132C347.843 517.132 347.33 517.066 346.831 516.934C346.347 516.787 345.907 516.575 345.511 516.296C345.13 516.003 344.822 515.643 344.587 515.218C344.367 514.778 344.257 514.272 344.257 513.7C344.257 513.04 344.374 512.483 344.609 512.028C344.858 511.573 345.188 511.214 345.599 510.95C346.01 510.686 346.486 510.495 347.029 510.378C347.572 510.261 348.136 510.202 348.723 510.202H352.133C352.133 509.542 352.038 508.97 351.847 508.486C351.671 508.002 351.378 507.628 350.967 507.364C350.556 507.085 350.014 506.946 349.339 506.946C348.928 506.946 348.547 506.99 348.195 507.078C347.843 507.166 347.542 507.305 347.293 507.496C347.044 507.687 346.86 507.943 346.743 508.266H344.741C344.844 507.738 345.042 507.291 345.335 506.924C345.643 506.543 346.01 506.235 346.435 506C346.875 505.751 347.344 505.567 347.843 505.45C348.342 505.333 348.84 505.274 349.339 505.274C350.454 505.274 351.348 505.501 352.023 505.956C352.698 506.396 353.189 507.027 353.497 507.848C353.805 508.655 353.959 509.615 353.959 510.73V517H352.397L352.287 515.526C351.964 515.966 351.576 516.303 351.121 516.538C350.666 516.773 350.197 516.927 349.713 517C349.244 517.088 348.796 517.132 348.371 517.132ZM348.547 515.482C349.28 515.482 349.911 515.365 350.439 515.13C350.982 514.881 351.4 514.521 351.693 514.052C351.986 513.583 352.133 513.011 352.133 512.336V511.764H350.087C349.603 511.764 349.126 511.771 348.657 511.786C348.188 511.801 347.762 511.859 347.381 511.962C347 512.065 346.692 512.241 346.457 512.49C346.237 512.739 346.127 513.099 346.127 513.568C346.127 514.008 346.237 514.367 346.457 514.646C346.692 514.925 346.992 515.137 347.359 515.284C347.74 515.416 348.136 515.482 348.547 515.482ZM356.416 517V505.406H358.286V510.488H364.094V505.406H365.964V517H364.094V512.138H358.286V517H356.416ZM368.48 517V505.406H370.35V510.4H372.374L375.806 505.406H377.94L374.068 510.928L378.27 517H376.07L372.594 512.028H370.35V517H368.48ZM382.154 517V507.056H378.172V505.406H388.006V507.056H384.024V517H382.154ZM389.389 511.654V509.938H396.209V511.654H389.389ZM399.311 517V501.446H411.543V517H409.629V503.184H401.225V517H399.311ZM419.517 517.132C418.285 517.132 417.266 516.883 416.459 516.384C415.653 515.871 415.051 515.167 414.655 514.272C414.259 513.377 414.061 512.358 414.061 511.214C414.061 510.055 414.267 509.036 414.677 508.156C415.103 507.261 415.719 506.557 416.525 506.044C417.332 505.531 418.322 505.274 419.495 505.274C420.361 505.274 421.116 505.443 421.761 505.78C422.421 506.103 422.964 506.543 423.389 507.1C423.829 507.657 424.145 508.281 424.335 508.97C424.541 509.659 424.629 510.371 424.599 511.104C424.585 511.236 424.577 511.368 424.577 511.5C424.577 511.632 424.57 511.764 424.555 511.896H415.953C416.012 512.571 416.181 513.179 416.459 513.722C416.738 514.265 417.134 514.697 417.647 515.02C418.161 515.328 418.799 515.482 419.561 515.482C419.943 515.482 420.324 515.438 420.705 515.35C421.101 515.247 421.453 515.079 421.761 514.844C422.084 514.609 422.311 514.294 422.443 513.898H424.357C424.181 514.646 423.851 515.262 423.367 515.746C422.883 516.215 422.304 516.567 421.629 516.802C420.955 517.022 420.251 517.132 419.517 517.132ZM415.997 510.268H422.707C422.693 509.608 422.546 509.029 422.267 508.53C421.989 508.031 421.607 507.643 421.123 507.364C420.654 507.085 420.089 506.946 419.429 506.946C418.711 506.946 418.102 507.1 417.603 507.408C417.119 507.716 416.745 508.119 416.481 508.618C416.217 509.117 416.056 509.667 415.997 510.268ZM429.379 517V507.056H425.397V505.406H435.231V507.056H431.249V517H429.379ZM441.475 517.132C440.243 517.132 439.224 516.883 438.417 516.384C437.611 515.871 437.009 515.167 436.613 514.272C436.217 513.377 436.019 512.358 436.019 511.214C436.019 510.055 436.225 509.036 436.635 508.156C437.061 507.261 437.677 506.557 438.483 506.044C439.29 505.531 440.28 505.274 441.453 505.274C442.319 505.274 443.074 505.443 443.719 505.78C444.379 506.103 444.922 506.543 445.347 507.1C445.787 507.657 446.103 508.281 446.293 508.97C446.499 509.659 446.587 510.371 446.557 511.104C446.543 511.236 446.535 511.368 446.535 511.5C446.535 511.632 446.528 511.764 446.513 511.896H437.911C437.97 512.571 438.139 513.179 438.417 513.722C438.696 514.265 439.092 514.697 439.605 515.02C440.119 515.328 440.757 515.482 441.519 515.482C441.901 515.482 442.282 515.438 442.663 515.35C443.059 515.247 443.411 515.079 443.719 514.844C444.042 514.609 444.269 514.294 444.401 513.898H446.315C446.139 514.646 445.809 515.262 445.325 515.746C444.841 516.215 444.262 516.567 443.587 516.802C442.913 517.022 442.209 517.132 441.475 517.132ZM437.955 510.268H444.665C444.651 509.608 444.504 509.029 444.225 508.53C443.947 508.031 443.565 507.643 443.081 507.364C442.612 507.085 442.047 506.946 441.387 506.946C440.669 506.946 440.06 507.1 439.561 507.408C439.077 507.716 438.703 508.119 438.439 508.618C438.175 509.117 438.014 509.667 437.955 510.268ZM448.631 521.18V505.406H450.413L450.501 507.188C450.897 506.557 451.432 506.081 452.107 505.758C452.796 505.435 453.537 505.274 454.329 505.274C455.502 505.274 456.463 505.538 457.211 506.066C457.959 506.579 458.509 507.283 458.861 508.178C459.227 509.073 459.411 510.085 459.411 511.214C459.411 512.343 459.227 513.355 458.861 514.25C458.494 515.145 457.929 515.849 457.167 516.362C456.404 516.875 455.429 517.132 454.241 517.132C453.654 517.132 453.126 517.073 452.657 516.956C452.187 516.824 451.777 516.641 451.425 516.406C451.073 516.171 450.765 515.907 450.501 515.614V521.18H448.631ZM454.087 515.482C454.937 515.482 455.612 515.291 456.111 514.91C456.609 514.514 456.969 513.993 457.189 513.348C457.423 512.703 457.541 511.991 457.541 511.214C457.541 510.422 457.423 509.703 457.189 509.058C456.969 508.413 456.602 507.899 456.089 507.518C455.575 507.137 454.893 506.946 454.043 506.946C453.28 506.946 452.627 507.144 452.085 507.54C451.557 507.921 451.153 508.442 450.875 509.102C450.596 509.747 450.457 510.459 450.457 511.236C450.457 512.043 450.589 512.769 450.853 513.414C451.117 514.059 451.52 514.565 452.063 514.932C452.605 515.299 453.28 515.482 454.087 515.482ZM466.481 517.132C465.748 517.132 465.095 517.029 464.523 516.824C463.951 516.604 463.46 516.303 463.049 515.922C462.638 515.526 462.301 515.064 462.037 514.536C461.773 513.993 461.575 513.407 461.443 512.776C461.311 512.145 461.245 511.478 461.245 510.774C461.245 509.645 461.267 508.596 461.311 507.628C461.37 506.645 461.531 505.773 461.795 505.01C462.059 504.233 462.506 503.587 463.137 503.074C463.768 502.561 464.655 502.201 465.799 501.996C466.386 501.893 466.965 501.805 467.537 501.732C468.109 501.659 468.688 501.585 469.275 501.512C469.466 501.483 469.664 501.453 469.869 501.424C470.074 501.395 470.287 501.358 470.507 501.314C470.742 501.27 470.962 501.233 471.167 501.204V502.92C471.006 502.979 470.83 503.03 470.639 503.074C470.463 503.103 470.272 503.133 470.067 503.162C469.876 503.191 469.678 503.213 469.473 503.228C469.282 503.243 469.092 503.265 468.901 503.294C468.71 503.309 468.527 503.331 468.351 503.36C467.838 503.419 467.295 503.477 466.723 503.536C466.151 503.58 465.608 503.697 465.095 503.888C464.596 504.064 464.171 504.409 463.819 504.922C463.643 505.186 463.489 505.501 463.357 505.868C463.24 506.235 463.152 506.609 463.093 506.99C463.049 507.357 463.02 507.709 463.005 508.046C463.298 507.635 463.658 507.305 464.083 507.056C464.508 506.792 464.963 506.601 465.447 506.484C465.931 506.352 466.393 506.286 466.833 506.286C467.889 506.286 468.784 506.506 469.517 506.946C470.25 507.371 470.808 507.98 471.189 508.772C471.57 509.564 471.761 510.488 471.761 511.544C471.761 512.6 471.556 513.553 471.145 514.404C470.734 515.24 470.133 515.907 469.341 516.406C468.564 516.89 467.61 517.132 466.481 517.132ZM466.525 515.482C467.258 515.482 467.874 515.306 468.373 514.954C468.872 514.602 469.246 514.133 469.495 513.546C469.759 512.959 469.891 512.314 469.891 511.61C469.891 510.921 469.759 510.305 469.495 509.762C469.246 509.205 468.872 508.765 468.373 508.442C467.889 508.119 467.288 507.958 466.569 507.958C465.865 507.958 465.256 508.127 464.743 508.464C464.244 508.801 463.856 509.256 463.577 509.828C463.313 510.385 463.181 510.994 463.181 511.654C463.181 512.329 463.306 512.959 463.555 513.546C463.804 514.133 464.171 514.602 464.655 514.954C465.154 515.306 465.777 515.482 466.525 515.482ZM474.207 521.972V520.19C474.925 520.19 475.497 520.087 475.923 519.882C476.348 519.691 476.7 519.383 476.979 518.958C477.272 518.547 477.551 518.019 477.815 517.374L472.733 505.406H474.933L478.849 515.174L482.061 505.406H484.173L480.917 514.536C480.755 515.005 480.572 515.533 480.367 516.12C480.161 516.707 479.934 517.301 479.685 517.902C479.435 518.518 479.157 519.083 478.849 519.596C478.555 520.124 478.225 520.549 477.859 520.872C477.551 521.151 477.25 521.371 476.957 521.532C476.663 521.693 476.304 521.803 475.879 521.862C475.468 521.935 474.911 521.972 474.207 521.972ZM485.467 521.18V505.406H487.249L487.337 507.188C487.733 506.557 488.268 506.081 488.943 505.758C489.632 505.435 490.373 505.274 491.165 505.274C492.338 505.274 493.299 505.538 494.047 506.066C494.795 506.579 495.345 507.283 495.697 508.178C496.064 509.073 496.247 510.085 496.247 511.214C496.247 512.343 496.064 513.355 495.697 514.25C495.33 515.145 494.766 515.849 494.003 516.362C493.24 516.875 492.265 517.132 491.077 517.132C490.49 517.132 489.962 517.073 489.493 516.956C489.024 516.824 488.613 516.641 488.261 516.406C487.909 516.171 487.601 515.907 487.337 515.614V521.18H485.467ZM490.923 515.482C491.774 515.482 492.448 515.291 492.947 514.91C493.446 514.514 493.805 513.993 494.025 513.348C494.26 512.703 494.377 511.991 494.377 511.214C494.377 510.422 494.26 509.703 494.025 509.058C493.805 508.413 493.438 507.899 492.925 507.518C492.412 507.137 491.73 506.946 490.879 506.946C490.116 506.946 489.464 507.144 488.921 507.54C488.393 507.921 487.99 508.442 487.711 509.102C487.432 509.747 487.293 510.459 487.293 511.236C487.293 512.043 487.425 512.769 487.689 513.414C487.953 514.059 488.356 514.565 488.899 514.932C489.442 515.299 490.116 515.482 490.923 515.482ZM498.218 517V505.406H506.226V507.056H500.088V517H498.218Z" fill="#D7CFEB"/>
<path d="M881 1134.08L732.318 1272.62H672.191L657.95 1286.85H528.185L490.995 1324L429.542 1262.61H383.121L324.04 1203.58V1279.47L296.616 1306.87H224.874V1203.58L287.117 1141.4V1020.19H212.214L188 996" stroke="black" stroke-miterlimit="10"/>
</svg>
